<?xml version="1.0" encoding="UTF-8"?>
<svg width="1028px" height="8008px" viewBox="0 0 1028 8008" version="1.1" xmlns="http://www.w3.org/2000/svg" xmlns:xlink="http://www.w3.org/1999/xlink">
    <!-- Generator: Sketch 44 (41411) - http://www.bohemiancoding.com/sketch -->
    <title>background_calc</title>
    <desc>Created with Sketch.</desc>
    <defs>
        <path d="M987.571429,8002 L977.163265,8002 C977.163265,7996.47715 972.503372,7992 966.755102,7992 C961.006832,7992 956.346939,7996.47715 956.346939,8002 L945.938776,8002 C945.938776,7996.47715 941.278882,7992 935.530612,7992 C929.782342,7992 925.122449,7996.47715 925.122449,8002 L914.714286,8002 C914.714286,7996.47715 910.054392,7992 904.306122,7992 C898.557853,7992 893.897959,7996.47715 893.897959,8002 L883.489796,8002 C883.489796,7996.47715 878.829902,7992 873.081633,7992 C867.333363,7992 862.673469,7996.47715 862.673469,8002 L852.265306,8002 C852.265306,7996.47715 847.605413,7992 841.857143,7992 C836.108873,7992 831.44898,7996.47715 831.44898,8002 L821.040816,8002 C821.040816,7996.47715 816.380923,7992 810.632653,7992 C804.884383,7992 800.22449,7996.47715 800.22449,8002 L789.816327,8002 C789.816327,7996.47715 785.156433,7992 779.408163,7992 C773.659893,7992 769,7996.47715 769,8002 L758.591837,8002 C758.591837,7996.47715 753.931943,7992 748.183673,7992 C742.435404,7992 737.77551,7996.47715 737.77551,8002 L727.367347,8002 C727.367347,7996.47715 722.707454,7992 716.959184,7992 C711.210914,7992 706.55102,7996.47715 706.55102,8002 L696.142857,8002 C696.142857,7996.47715 691.482964,7992 685.734694,7992 C679.986424,7992 675.326531,7996.47715 675.326531,8002 L664.918367,8002 C664.918367,7996.47715 660.258474,7992 654.510204,7992 C648.761934,7992 644.102041,7996.47715 644.102041,8002 L633.693878,8002 C633.693878,7996.47715 629.033984,7992 623.285714,7992 C617.537444,7992 612.877551,7996.47715 612.877551,8002 L602.469388,8002 C602.469388,7996.47715 597.809494,7992 592.061224,7992 C586.312955,7992 581.653061,7996.47715 581.653061,8002 L571.244898,8002 C571.244898,7996.47715 566.585005,7992 560.836735,7992 C555.088465,7992 550.428571,7996.47715 550.428571,8002 L540.020408,8002 C540.020408,7996.47715 535.360515,7992 529.612245,7992 C523.863975,7992 519.204082,7996.47715 519.204082,8002 L508.795918,8002 C508.795918,7996.47715 504.136025,7992 498.387755,7992 C492.639485,7992 487.979592,7996.47715 487.979592,8002 L477.571429,8002 C477.571429,7996.47715 472.911535,7992 467.163265,7992 C461.414995,7992 456.755102,7996.47715 456.755102,8002 L446.346939,8002 C446.346939,7996.47715 441.687045,7992 435.938776,7992 C430.190506,7992 425.530612,7996.47715 425.530612,8002 L415.122449,8002 C415.122449,7996.47715 410.462556,7992 404.714286,7992 C398.966016,7992 394.306122,7996.47715 394.306122,8002 L383.897959,8002 C383.897959,7996.47715 379.238066,7992 373.489796,7992 C367.741526,7992 363.081633,7996.47715 363.081633,8002 L352.673469,8002 C352.673469,7996.47715 348.013576,7992 342.265306,7992 C336.517036,7992 331.857143,7996.47715 331.857143,8002 L321.44898,8002 C321.44898,7996.47715 316.789086,7992 311.040816,7992 C305.292546,7992 300.632653,7996.47715 300.632653,8002 L290.22449,8002 C290.22449,7996.47715 285.564596,7992 279.816327,7992 C274.068057,7992 269.408163,7996.47715 269.408163,8002 L259,8002 C259,7996.47715 254.340107,7992 248.591837,7992 C242.843567,7992 238.183673,7996.47715 238.183673,8002 L227.77551,8002 C227.77551,7996.47715 223.115617,7992 217.367347,7992 C211.619077,7992 206.959184,7996.47715 206.959184,8002 L196.55102,8002 C196.55102,7996.47715 191.891127,7992 186.142857,7992 C180.394587,7992 175.734694,7996.47715 175.734694,8002 L165.326531,8002 C165.326531,7996.47715 160.666637,7992 154.918367,7992 C149.170098,7992 144.510204,7996.47715 144.510204,8002 L134.102041,8002 C134.102041,7996.47715 129.442147,7992 123.693878,7992 C117.945608,7992 113.285714,7996.47715 113.285714,8002 L102.877551,8002 C102.877551,7996.47715 98.2176576,7992 92.4693878,7992 C86.7211179,7992 82.0612245,7996.47715 82.0612245,8002 L71.6530612,8002 C71.6530612,7996.47715 66.9931678,7992 61.244898,7992 C55.4966281,7992 50.8367347,7996.47715 50.8367347,8002 L40.4285714,8002 C40.4285714,7996.47715 35.768678,7992 30.0204082,7992 C24.2721383,7992 19.6122449,7996.47715 19.6122449,8002 L4,8002 L4,2 L1024,2 L1024,8002 L1008.38776,8002 C1008.38776,7996.47715 1003.72786,7992 997.979592,7992 C992.231322,7992 987.571429,7996.47715 987.571429,8002 Z" id="path-1"></path>
        <filter x="-0.7%" y="-0.1%" width="101.4%" height="100.2%" filterUnits="objectBoundingBox" id="filter-2">
            <feOffset dx="0" dy="2" in="SourceAlpha" result="shadowOffsetOuter1"></feOffset>
            <feGaussianBlur stdDeviation="2" in="shadowOffsetOuter1" result="shadowBlurOuter1"></feGaussianBlur>
            <feColorMatrix values="0 0 0 0 0   0 0 0 0 0   0 0 0 0 0  0 0 0 0.1 0" type="matrix" in="shadowBlurOuter1"></feColorMatrix>
        </filter>
    </defs>
    <g id="Page-1" stroke="none" stroke-width="1" fill="none" fill-rule="evenodd">
        <g id="background_calc">
            <use fill="black" fill-opacity="1" filter="url(#filter-2)" xlink:href="#path-1"></use>
            <use fill="#FFFFFF" fill-rule="evenodd" xlink:href="#path-1"></use>
        </g>
    </g>
</svg>