<?xml version="1.0" encoding="UTF-8"?>
<svg width="190px" height="118px" viewBox="0 0 190 118" version="1.1" xmlns="http://www.w3.org/2000/svg" xmlns:xlink="http://www.w3.org/1999/xlink">
    <!-- Generator: Sketch 43.2 (39069) - http://www.bohemiancoding.com/sketch -->
    <title>digitronic</title>
    <desc>Created with Sketch.</desc>
    <defs></defs>
    <g id="Page-1" stroke="none" stroke-width="1" fill="none" fill-rule="evenodd">
        <g id="Desktop-HD" transform="translate(-500.000000, -1044.000000)" fill-rule="nonzero">
            <g id="логотипы" transform="translate(0.000000, 964.000000)">
                <g id="digitronic" transform="translate(500.000000, 80.000000)">
                    <rect id="1" fill="#FFFFFF" x="0" y="0" width="190" height="118"></rect>
                    <g id="2" transform="translate(14.615385, 33.925000)">
                        <path d="M40.0487637,1.18 C40.0487637,0.1475 39.9052198,0.1475 39.043956,0.1475 L38.7568681,0.1475 L20.8138736,0.1475 L2.87087912,0.1475 L2.2967033,0.1475 C1.57898352,0.1475 1.43543956,0.295 1.43543956,0.885 C1.43543956,3.245 1.2918956,12.8325 1.2918956,15.34 C1.2918956,15.93 1.43543956,29.0575 1.43543956,29.795 C1.43543956,31.1225 1.57898352,32.5975 1.57898352,33.925 C1.72252747,35.4 2.00961538,36.7275 2.58379121,38.055 C3.30151099,39.9725 4.59340659,41.4475 6.17239011,42.775 C7.1771978,43.66 8.18200549,44.3975 9.18681319,45.135 C10.1916209,45.725 11.1964286,46.315 12.2012363,46.905 C13.7802198,47.79 15.3592033,48.5275 17.0817308,48.97 C18.0865385,49.265 19.0913462,49.7075 20.0961538,50.0025 C20.3832418,50.15 20.8138736,50.15 21.1009615,50.0025 C23.1105769,49.265 25.2637363,48.675 27.2733516,47.79 C28.8523352,47.0525 30.5748626,46.1675 32.0103022,45.135 C33.3021978,44.25 34.4505495,43.365 35.5989011,42.3325 C36.8907967,41.1525 38.0391484,39.825 38.6133242,38.055 C39.331044,36.1375 39.6181319,34.0725 39.7616758,32.0075 C40.1923077,21.6825 40.0487637,11.505 40.0487637,1.18 Z M37.7520604,30.5325 C37.7520604,32.0075 37.6085165,33.4825 37.4649725,34.9575 C37.1778846,37.3175 36.029533,39.0875 34.3070055,40.5625 C31.8667582,42.775 29.1394231,44.3975 26.125,45.5775 C24.5460165,46.315 22.967033,46.7575 21.3880495,47.3475 C21.1009615,47.495 20.6703297,47.495 20.3832418,47.3475 C16.0769231,46.02 12.0576923,44.25 8.46909341,41.4475 C7.32074176,40.5625 6.31593407,39.6775 5.45467033,38.35 C4.73695055,37.3175 4.30631868,36.1375 4.16277473,34.81 C4.01923077,33.1875 3.73214286,31.565 3.73214286,29.9425 L3.73214286,3.3925 L3.73214286,2.655 C4.44986264,2.36 36.6037088,2.36 37.4649725,2.655 L37.4649725,3.3925 C37.7520604,12.5375 37.7520604,21.535 37.7520604,30.5325 Z" id="XMLID_60_" fill="#0975AC"></path>
                        <path d="M140.098901,27.8775 C139.237637,28.32 136.366758,28.32 135.649038,27.8775 L135.649038,27.14 L135.649038,15.7825 C135.649038,15.1925 135.505495,15.045 134.931319,15.045 L132.203984,15.045 C131.629808,15.045 131.486264,15.1925 131.486264,15.7825 L131.486264,27.14 C131.486264,28.025 131.34272,28.1725 130.481456,28.1725 L127.897665,28.1725 C127.036401,28.1725 127.036401,28.1725 126.892857,27.2875 L126.892857,25.37 L126.892857,11.8 L126.892857,11.21 C126.892857,10.915 127.036401,10.62 127.467033,10.62 L127.897665,10.62 L134.931319,10.62 C136.223214,10.62 137.51511,10.915 138.519918,11.9475 C139.668269,12.98 139.955357,14.3075 139.955357,15.7825 L139.955357,24.78 C140.098901,25.8125 140.098901,26.845 140.098901,27.8775 Z M74.3557692,20.355 L74.3557692,22.8625 C74.3557692,23.6 74.2122253,23.6 73.6380495,23.6 L71.0542582,23.6 C70.1929945,23.6 70.1929945,23.4525 70.1929945,22.715 L70.1929945,17.8475 L70.1929945,15.635 C70.1929945,15.045 70.3365385,14.8975 70.7671703,14.8975 L71.3413462,14.8975 L77.9443681,14.8975 C78.6620879,14.8975 78.8056319,14.75 78.8056319,14.0125 L78.8056319,11.21 C78.8056319,10.62 78.6620879,10.4725 78.0879121,10.4725 L70.4800824,10.4725 C69.4752747,10.4725 68.614011,10.7675 67.8962912,11.21 C66.4608516,12.2425 65.8866758,13.57 65.8866758,15.34 L65.8866758,21.83 L65.8866758,23.7475 C66.0302198,25.96 67.8962912,28.025 70.3365385,28.025 C72.9203297,28.1725 75.5041209,28.025 78.0879121,28.025 C78.6620879,28.025 78.8056319,27.8775 78.8056319,27.2875 L78.8056319,19.9125 C78.8056319,19.3225 78.6620879,19.175 78.0879121,19.175 L75.217033,19.175 C75.073489,19.175 74.7864011,19.175 74.6428571,19.3225 C74.3557692,19.765 74.3557692,20.06 74.3557692,20.355 Z M159.333791,14.16 L159.333791,11.3575 C159.333791,10.62 159.190247,10.62 158.472527,10.62 L151.29533,10.62 C150.721154,10.62 150.003434,10.7675 149.429258,10.915 C147.850275,11.3575 146.271291,12.98 146.271291,15.635 L146.271291,23.305 C146.271291,24.0425 146.414835,24.9275 146.701923,25.665 C147.563187,27.2875 148.998626,28.1725 150.721154,28.32 L158.328984,28.32 C158.472527,28.32 158.759615,28.32 159.046703,28.1725 L159.046703,27.435 L159.046703,24.78 C159.046703,23.895 159.046703,23.7475 158.041896,23.7475 L151.438874,23.7475 C150.434066,23.7475 150.434066,23.7475 150.434066,22.715 L150.434066,16.0775 C150.434066,15.1925 150.57761,15.045 151.438874,15.045 L158.18544,15.045 L159.046703,15.045 C159.190247,14.75 159.333791,14.455 159.333791,14.16 Z M97.3228022,10.62 L85.8392857,10.62 C85.5521978,10.62 85.2651099,10.7675 84.978022,10.7675 L84.978022,14.455 C84.978022,14.8975 85.2651099,15.045 85.6957418,15.045 L88.279533,15.045 C89.1407967,15.045 89.2843407,15.045 89.2843407,16.0775 L89.2843407,27.14 L89.2843407,28.025 C89.5714286,28.025 89.8585165,28.1725 90.2891484,28.1725 L92.8729396,28.1725 C93.5906593,28.1725 93.7342033,28.025 93.7342033,27.2875 L93.7342033,15.93 C93.7342033,15.045 93.7342033,15.045 94.595467,15.045 L97.1792582,15.045 C97.3228022,15.045 97.6098901,15.045 97.896978,14.8975 C98.040522,13.4225 97.896978,12.095 97.896978,10.62 C97.7534341,10.62 97.6098901,10.62 97.3228022,10.62 Z M64.7383242,25.665 L64.7383242,11.3575 C64.7383242,10.62 64.5947802,10.325 64.0206044,10.325 L61.0061813,10.325 C60.4320055,10.325 60.2884615,10.62 60.2884615,11.21 L60.2884615,15.1925 L60.2884615,26.9925 C60.2884615,27.8775 60.4320055,28.025 61.2932692,28.025 L63.8770604,28.025 C64.1641484,28.025 64.4512363,27.8775 64.7383242,27.8775 L64.7383242,25.665 Z M140.960165,10.7675 L140.960165,27.8775 C141.677885,28.1725 144.548764,28.1725 145.266484,27.8775 L145.266484,10.7675 C144.548764,10.4725 141.677885,10.4725 140.960165,10.7675 Z M79.8104396,27.8775 C79.9539835,27.8775 79.9539835,28.025 79.9539835,28.025 C81.2458791,28.025 82.3942308,28.1725 83.6861264,28.025 C83.8296703,28.025 84.1167582,27.73 84.1167582,27.5825 C84.2603022,27.435 84.1167582,27.14 84.1167582,26.9925 L84.1167582,15.93 L84.1167582,11.3575 C84.1167582,10.62 83.9732143,10.4725 83.3990385,10.4725 L80.5281593,10.4725 C80.2410714,10.4725 80.0975275,10.62 79.8104396,10.62 C79.8104396,16.52 79.8104396,22.2725 79.8104396,27.8775 Z M59.4271978,23.01 C59.4271978,24.9275 58.709478,26.4025 57.1304945,27.435 C56.4127747,27.8775 55.551511,28.1725 54.6902473,28.1725 L47.0824176,28.1725 C46.3646978,28.1725 46.3646978,28.025 46.3646978,27.2875 L46.3646978,19.3225 L46.3646978,11.6525 C46.3646978,10.62 46.3646978,10.62 47.3695055,10.62 L54.4031593,10.62 C55.551511,10.62 56.6998626,10.915 57.7046703,11.6525 C58.5659341,12.39 59.1401099,13.275 59.2836538,14.455 C59.2836538,14.8975 59.4271978,15.1925 59.4271978,15.635 L59.4271978,23.01 Z M55.1208791,15.7825 C55.1208791,15.1925 54.9773352,14.8975 54.2596154,14.8975 L51.5322802,14.8975 C50.8145604,14.8975 50.6710165,15.045 50.6710165,15.7825 L50.6710165,19.175 L50.6710165,22.8625 C50.6710165,23.4525 50.8145604,23.6 51.3887363,23.6 L54.2596154,23.6 C54.9773352,23.6 54.9773352,23.4525 54.9773352,22.715 C55.1208791,20.5025 55.1208791,18.1425 55.1208791,15.7825 Z M110.67239,22.42 C110.098214,23.01 110.098214,23.01 110.385302,23.895 C110.815934,25.075 111.246566,26.1075 111.677198,27.2875 C111.820742,27.5825 111.820742,27.73 111.964286,28.1725 C111.533654,28.1725 111.246566,28.32 110.959478,28.32 L108.806319,28.32 C107.801511,28.32 107.657967,28.1725 107.227335,27.2875 C106.940247,26.4025 106.653159,25.5175 106.366071,24.6325 C106.222527,24.0425 105.93544,23.895 105.361264,23.895 L103.638736,23.895 C103.638736,24.3375 103.495192,24.6325 103.495192,24.9275 L103.495192,27.5825 C103.495192,28.1725 103.351648,28.32 102.777473,28.32 L100.050137,28.32 C99.1888736,28.32 99.0453297,28.1725 99.0453297,27.2875 L99.0453297,14.75 L99.0453297,11.8 L99.0453297,10.915 C99.3324176,10.915 99.6195055,10.7675 99.9065934,10.7675 L107.657967,10.7675 C109.95467,10.7675 112.10783,12.98 111.964286,15.34 L111.964286,19.3225 C112.10783,20.5025 111.533654,21.535 110.67239,22.42 Z M107.801511,15.635 C107.801511,15.1925 107.657967,15.045 107.083791,15.045 L104.212912,15.045 C103.495192,15.045 103.495192,15.1925 103.495192,15.7825 L103.495192,18.585 C103.495192,18.88 103.638736,19.0275 103.638736,19.3225 L107.657967,19.3225 C107.657967,19.0275 107.801511,18.88 107.801511,18.7325 C107.801511,17.7 107.801511,16.6675 107.801511,15.635 Z M126.031593,20.06 L126.031593,23.305 C126.031593,26.4025 123.591346,28.025 121.581731,28.1725 L117.418956,28.1725 C114.835165,28.025 112.969093,25.8125 112.969093,23.305 L112.969093,15.34 C112.969093,12.98 114.835165,10.915 117.275412,10.7675 L121.438187,10.7675 C124.021978,10.7675 125.888049,12.685 125.888049,15.34 C126.031593,16.815 126.031593,18.4375 126.031593,20.06 Z M121.581731,15.93 C121.581731,15.1925 121.438187,15.045 120.720467,15.045 L118.136676,15.045 C117.5625,15.045 117.418956,15.1925 117.418956,15.7825 L117.418956,23.01 C117.418956,23.6 117.5625,23.7475 118.136676,23.7475 L120.864011,23.7475 C121.151099,23.7475 121.294643,23.6 121.581731,23.6 L121.581731,23.01 C121.581731,20.65 121.581731,18.29 121.581731,15.93 Z M17.0817308,15.045 L34.3070055,15.045 C35.3118132,15.045 35.3118132,15.045 35.3118132,14.0125 L35.3118132,6.0475 C35.3118132,5.1625 35.3118132,5.015 34.3070055,5.015 L27.2733516,5.015 L15.7898352,5.015 C14.2108516,5.015 12.6318681,5.4575 11.1964286,6.3425 C7.89491758,8.26 6.31593407,11.3575 6.17239011,15.34 L6.17239011,27.73 C6.17239011,29.795 6.17239011,32.0075 6.45947802,34.0725 C6.74656593,35.8425 7.46428571,37.3175 8.75618132,38.4975 C11.9141484,41.3 15.6462912,43.07 19.521978,44.545 C20.3832418,44.84 21.2445055,44.6925 22.1057692,44.3975 C24.5460165,43.5125 26.8427198,42.48 29.1394231,41.005 C30.7184066,40.12 32.1538462,38.94 33.4457418,37.6125 C34.1634615,36.875 34.5940934,35.99 34.7376374,34.9575 C34.8811813,33.7775 35.0247253,32.745 35.1682692,31.565 C35.3118132,29.6475 35.1682692,27.73 35.3118132,25.8125 L35.3118132,25.075 C34.4505495,24.78 26.4120879,24.78 25.6943681,25.075 L25.6943681,25.96 L25.6943681,33.925 C25.6943681,34.81 25.5508242,34.81 24.8331044,34.81 L16.9381868,34.81 C16.0769231,34.81 15.9333791,34.6625 15.9333791,33.7775 L15.9333791,15.635 C15.9333791,15.34 15.9333791,15.045 16.0769231,14.75 C16.364011,15.045 16.7946429,15.045 17.0817308,15.045 Z M50.0968407,39.6775 L48.5178571,35.2525 L47.8001374,35.2525 L46.2211538,39.6775 L46.9388736,39.6775 L47.3695055,38.4975 L49.092033,38.4975 L49.5226648,39.6775 L50.0968407,39.6775 Z M47.5130495,37.76 L47.9436813,36.58 C48.0872253,36.285 48.0872253,35.99 48.2307692,35.695 C48.2307692,35.8425 48.2307692,35.8425 48.3743132,36.1375 C48.3743132,36.285 48.5178571,36.4325 48.5178571,36.58 L48.948489,37.76 L47.5130495,37.76 L47.5130495,37.76 Z M52.106456,36.285 L50.5274725,36.285 L50.5274725,39.6775 L52.106456,39.6775 C52.5370879,39.6775 52.9677198,39.53 53.1112637,39.3825 C53.3983516,39.235 53.3983516,38.94 53.3983516,38.645 C53.3983516,38.4975 53.3983516,38.2025 53.2548077,38.055 C53.1112637,37.9075 52.9677198,37.9075 52.6806319,37.76 L52.6806319,37.76 C53.1112637,37.6125 53.3983516,37.465 53.3983516,37.0225 C53.3983516,36.58 52.9677198,36.285 52.106456,36.285 Z M52.5370879,37.6125 C52.393544,37.6125 52.25,37.76 51.9629121,37.76 L51.2451923,37.76 L51.2451923,36.875 L52.106456,36.875 C52.25,36.875 52.393544,36.875 52.5370879,37.0225 C52.6806319,37.0225 52.6806319,37.17 52.6806319,37.3175 C52.6806319,37.465 52.6806319,37.465 52.5370879,37.6125 Z M52.106456,39.0875 L51.2451923,39.0875 L51.2451923,38.2025 L52.106456,38.2025 C52.393544,38.2025 52.5370879,38.2025 52.6806319,38.35 C52.8241758,38.35 52.8241758,38.4975 52.8241758,38.645 C52.8241758,38.94 52.5370879,39.0875 52.106456,39.0875 Z M53.8289835,36.285 L53.8289835,36.875 L54.8337912,36.875 L54.8337912,39.6775 L55.551511,39.6775 L55.551511,36.875 L56.5563187,36.875 L56.5563187,36.285 L53.8289835,36.285 Z M59.8578297,36.7275 C59.5707418,36.4325 59.1401099,36.285 58.709478,36.285 C58.2788462,36.285 57.8482143,36.4325 57.5611264,36.7275 C57.2740385,37.0225 57.1304945,37.465 57.1304945,38.055 C57.1304945,38.35 57.1304945,38.645 57.2740385,38.94 C57.4175824,39.235 57.5611264,39.3825 57.8482143,39.53 C58.1353022,39.6775 58.4223901,39.6775 58.709478,39.6775 C59.1401099,39.6775 59.5707418,39.53 59.8578297,39.235 C60.1449176,38.94 60.2884615,38.4975 60.2884615,37.9075 C60.2884615,37.465 60.1449176,37.0225 59.8578297,36.7275 Z M57.9917582,37.17 C58.1353022,37.0225 58.2788462,36.875 58.5659341,36.875 C59.1401099,36.875 59.4271978,37.3175 59.4271978,38.055 C59.4271978,38.7925 59.1401099,39.235 58.5659341,39.235 C57.9917582,39.235 57.7046703,38.7925 57.7046703,38.055 C57.8482143,37.6125 57.8482143,37.3175 57.9917582,37.17 Z M62.5851648,38.055 L61.8674451,36.285 L61.0061813,36.285 L61.0061813,39.6775 L61.7239011,39.6775 L61.7239011,37.0225 C61.8674451,37.3175 61.8674451,37.6125 62.010989,37.9075 L62.7287088,39.6775 L63.1593407,39.6775 L63.8770604,37.9075 C63.8770604,37.76 64.0206044,37.465 64.1641484,37.17 L64.1641484,37.0225 L64.1641484,39.6775 L64.7383242,39.6775 L64.7383242,36.285 L63.8770604,36.285 L63.1593407,38.2025 C63.1593407,38.35 63.0157967,38.645 63.0157967,38.94 L63.0157967,39.0875 C62.7287088,38.4975 62.7287088,38.2025 62.5851648,38.055 Z M68.3269231,36.7275 C68.0398352,36.4325 67.6092033,36.285 67.1785714,36.285 C66.7479396,36.285 66.3173077,36.4325 66.0302198,36.7275 C65.7431319,37.0225 65.5995879,37.465 65.5995879,38.055 C65.5995879,38.35 65.5995879,38.645 65.7431319,38.94 C65.8866758,39.235 66.0302198,39.3825 66.3173077,39.53 C66.6043956,39.6775 66.8914835,39.6775 67.1785714,39.6775 C67.6092033,39.6775 68.0398352,39.53 68.3269231,39.235 C68.614011,38.94 68.7575549,38.4975 68.7575549,37.9075 C68.7575549,37.465 68.614011,37.0225 68.3269231,36.7275 Z M66.4608516,37.17 C66.6043956,37.0225 66.7479396,36.875 67.0350275,36.875 C67.6092033,36.875 67.8962912,37.3175 67.8962912,38.055 C67.8962912,38.7925 67.6092033,39.235 67.0350275,39.235 C66.4608516,39.235 66.1737637,38.7925 66.1737637,38.055 C66.3173077,37.6125 66.3173077,37.3175 66.4608516,37.17 Z M69.7623626,39.235 C70.0494505,39.53 70.4800824,39.825 70.9107143,39.825 C71.3413462,39.825 71.771978,39.6775 72.0590659,39.3825 C72.3461538,39.0875 72.4896978,38.645 72.4896978,38.055 C72.4896978,37.6125 72.3461538,37.17 72.2026099,37.0225 C71.915522,36.7275 71.6284341,36.58 71.1978022,36.58 C71.0542582,36.58 70.7671703,36.58 70.6236264,36.7275 C70.4800824,36.875 70.3365385,37.0225 70.1929945,37.17 L70.1929945,37.17 C70.1929945,36.7275 70.3365385,36.4325 70.4800824,36.285 C70.6236264,36.1375 70.9107143,35.99 71.1978022,35.8425 C71.4848901,35.8425 71.915522,35.695 72.6332418,35.5475 L72.4896978,34.9575 C71.915522,35.105 71.4848901,35.105 71.0542582,35.2525 C70.4800824,35.4 70.0494505,35.695 69.9059066,35.99 C69.6188187,36.4325 69.4752747,37.0225 69.4752747,37.76 C69.3317308,38.35 69.4752747,38.7925 69.7623626,39.235 Z M70.1929945,38.7925 C70.0494505,38.4975 69.9059066,38.2025 69.9059066,37.76 C69.9059066,37.6125 70.0494505,37.6125 70.1929945,37.465 C70.3365385,37.3175 70.3365385,37.3175 70.4800824,37.17 C70.6236264,37.17 70.7671703,37.0225 70.9107143,37.0225 C71.3413462,37.0225 71.6284341,37.3175 71.6284341,38.055 C71.6284341,38.7925 71.3413462,39.0875 70.9107143,39.0875 C70.6236264,39.235 70.3365385,39.0875 70.1929945,38.7925 Z M73.2074176,36.285 L73.2074176,39.6775 L74.0686813,39.6775 L75.6476648,37.0225 L75.6476648,37.465 L75.6476648,37.9075 L75.6476648,39.53 L76.3653846,39.53 L76.3653846,36.1375 L75.5041209,36.1375 L73.9251374,38.7925 L73.9251374,37.9075 L73.9251374,36.1375 L73.2074176,36.1375 L73.2074176,36.285 Z M79.9539835,36.285 L77.8008242,36.285 C77.8008242,37.17 77.6572802,37.9075 77.5137363,38.35 C77.3701923,38.7925 77.2266484,39.0875 77.0831044,39.0875 L76.7960165,39.0875 L76.7960165,39.6775 L77.2266484,39.6775 C77.5137363,39.6775 77.6572802,39.53 77.8008242,39.3825 C77.9443681,39.235 78.0879121,38.94 78.231456,38.4975 C78.375,38.055 78.375,37.465 78.518544,36.875 L79.3798077,36.875 L79.3798077,39.6775 L80.0975275,39.6775 L80.0975275,36.285 L79.9539835,36.285 Z M81.676511,36.285 L80.9587912,36.285 L80.9587912,39.6775 L82.5377747,39.6775 C82.9684066,39.6775 83.2554945,39.53 83.5425824,39.3825 C83.8296703,39.235 83.8296703,38.94 83.8296703,38.645 C83.8296703,38.055 83.3990385,37.6125 82.3942308,37.6125 L81.532967,37.6125 L81.532967,36.285 L81.676511,36.285 Z M82.9684066,39.0875 C82.8248626,39.235 82.6813187,39.235 82.3942308,39.235 L81.676511,39.235 L81.676511,38.35 L82.3942308,38.35 C82.6813187,38.35 82.8248626,38.35 82.9684066,38.4975 C83.1119505,38.4975 83.1119505,38.645 83.1119505,38.7925 C83.1119505,38.7925 83.1119505,38.94 82.9684066,39.0875 Z M84.5473901,36.285 L84.5473901,39.6775 L85.2651099,39.6775 L85.2651099,38.2025 L86.8440934,38.2025 L86.8440934,39.6775 L87.5618132,39.6775 L87.5618132,36.285 L86.8440934,36.285 L86.8440934,37.6125 L85.2651099,37.6125 L85.2651099,36.285 L84.5473901,36.285 Z M89.2843407,36.285 L88.5666209,36.285 L88.5666209,39.6775 L89.8585165,39.6775 C90.2891484,39.6775 90.5762363,39.53 90.8633242,39.3825 C91.1504121,39.235 91.1504121,38.94 91.1504121,38.645 C91.1504121,38.35 91.0068681,38.055 90.8633242,37.9075 C90.5762363,37.76 90.2891484,37.6125 89.8585165,37.6125 L89.1407967,37.6125 L89.1407967,36.285 L89.2843407,36.285 Z M90.2891484,39.0875 C90.1456044,39.235 90.0020604,39.235 89.7149725,39.235 L89.1407967,39.235 L89.1407967,38.35 L89.7149725,38.35 C90.0020604,38.35 90.1456044,38.35 90.2891484,38.4975 C90.4326923,38.4975 90.4326923,38.645 90.4326923,38.7925 C90.5762363,38.7925 90.4326923,38.94 90.2891484,39.0875 Z M92.4423077,36.285 L91.7245879,36.285 L91.7245879,39.6775 L92.4423077,39.6775 L92.4423077,36.285 Z M95.4567308,39.6775 C95.6002747,39.6775 95.7438187,39.53 96.0309066,39.53 L96.0309066,38.94 C95.8873626,39.0875 95.6002747,39.0875 95.4567308,39.0875 L94.8825549,39.0875 C94.595467,39.0875 94.3083791,38.94 94.1648352,38.7925 C94.0212912,38.645 93.8777473,38.35 93.8777473,38.055 L96.1744505,38.055 L96.1744505,37.6125 C96.1744505,37.17 96.0309066,36.7275 95.7438187,36.4325 C95.4567308,36.1375 95.1696429,35.99 94.739011,35.99 C94.3083791,35.99 93.8777473,36.1375 93.5906593,36.4325 C93.3035714,36.7275 93.1600275,37.17 93.1600275,37.76 C93.1600275,38.35 93.3035714,38.645 93.5906593,39.0875 C93.8777473,39.3825 94.3083791,39.53 94.739011,39.53 C95.0260989,39.6775 95.3131868,39.6775 95.4567308,39.6775 Z M95.3131868,37.0225 C95.4567308,37.17 95.4567308,37.3175 95.4567308,37.6125 L94.0212912,37.6125 C94.0212912,37.3175 94.1648352,37.17 94.3083791,37.0225 C94.3083791,36.875 94.4519231,36.875 94.739011,36.875 C94.8825549,36.875 95.1696429,36.875 95.3131868,37.0225 Z M98.4711538,36.285 L98.4711538,39.6775 L99.1888736,39.6775 L99.1888736,36.875 L100.624313,36.875 L100.624313,36.285 L98.4711538,36.285 Z M103.78228,39.6775 L103.78228,37.465 C103.78228,37.0225 103.638736,36.7275 103.495192,36.58 C103.351648,36.4325 102.921016,36.285 102.490385,36.285 C102.346841,36.285 102.059753,36.285 101.916209,36.4325 C101.772665,36.4325 101.485577,36.58 101.342033,36.58 L101.629121,37.0225 C101.772665,37.0225 101.916209,36.875 102.059753,36.875 C102.203297,36.875 102.346841,36.7275 102.490385,36.7275 C102.633929,36.7275 102.777473,36.7275 102.921016,36.875 C103.06456,37.0225 103.06456,37.17 103.06456,37.3175 L103.06456,37.465 L102.490385,37.465 C101.916209,37.465 101.629121,37.6125 101.342033,37.76 C101.054945,37.9075 100.911401,38.2025 100.911401,38.4975 C100.911401,38.7925 101.054945,39.0875 101.198489,39.235 C101.342033,39.3825 101.629121,39.53 101.916209,39.53 C102.203297,39.53 102.346841,39.53 102.490385,39.3825 C102.633929,39.3825 102.777473,39.235 102.921016,38.94 L102.921016,38.94 L103.06456,39.3825 L103.78228,39.3825 L103.78228,39.6775 Z M101.772665,39.0875 C101.629121,38.94 101.629121,38.94 101.629121,38.7925 C101.629121,38.645 101.772665,38.4975 101.916209,38.35 C102.059753,38.2025 102.346841,38.2025 102.633929,38.2025 L103.06456,38.2025 L103.06456,38.35 C103.06456,38.645 102.921016,38.7925 102.777473,38.94 C102.633929,39.0875 102.490385,39.0875 102.203297,39.0875 C102.059753,39.235 101.916209,39.0875 101.772665,39.0875 Z M105.074176,37.6125 L105.074176,38.2025 L105.504808,38.2025 C105.791896,38.2025 106.078984,38.2025 106.222527,38.35 C106.366071,38.4975 106.509615,38.4975 106.509615,38.7925 C106.509615,38.94 106.366071,39.0875 106.222527,39.0875 C106.078984,39.235 105.791896,39.235 105.648352,39.235 C105.21772,39.235 104.930632,39.0875 104.5,38.94 L104.5,39.53 C104.787088,39.6775 105.21772,39.6775 105.648352,39.6775 C106.078984,39.6775 106.509615,39.53 106.796703,39.3825 C107.083791,39.235 107.227335,38.94 107.227335,38.645 C107.227335,38.4975 107.227335,38.35 107.083791,38.2025 C106.940247,38.055 106.796703,37.9075 106.509615,37.9075 L106.509615,37.9075 C106.940247,37.76 107.083791,37.6125 107.083791,37.17 C107.083791,36.875 106.940247,36.7275 106.796703,36.58 C106.509615,36.4325 106.222527,36.285 105.791896,36.285 C105.361264,36.285 104.930632,36.4325 104.5,36.58 L104.787088,37.17 C105.074176,37.0225 105.504808,37.0225 105.791896,37.0225 C106.222527,37.0225 106.509615,37.17 106.509615,37.465 C106.509615,37.6125 106.366071,37.76 106.222527,37.76 C106.078984,37.76 105.791896,37.9075 105.504808,37.9075 L105.074176,37.9075 L105.074176,37.6125 Z M110.385302,36.7275 C110.098214,36.4325 109.667582,36.285 109.236951,36.285 C108.806319,36.285 108.375687,36.4325 108.088599,36.7275 C107.801511,37.0225 107.657967,37.465 107.657967,38.055 C107.657967,38.35 107.657967,38.645 107.801511,38.94 C107.945055,39.235 108.088599,39.3825 108.375687,39.53 C108.662775,39.6775 108.949863,39.6775 109.236951,39.6775 C109.667582,39.6775 110.098214,39.53 110.385302,39.235 C110.67239,38.94 110.815934,38.4975 110.815934,37.9075 C110.815934,37.465 110.67239,37.0225 110.385302,36.7275 Z M108.519231,37.17 C108.662775,37.0225 108.806319,36.875 109.093407,36.875 C109.667582,36.875 109.95467,37.3175 109.95467,38.055 C109.95467,38.7925 109.667582,39.235 109.093407,39.235 C108.519231,39.235 108.232143,38.7925 108.232143,38.055 C108.375687,37.6125 108.519231,37.3175 108.519231,37.17 Z M113.112637,36.285 L111.533654,36.285 L111.533654,39.6775 L113.112637,39.6775 C113.543269,39.6775 113.973901,39.53 114.117445,39.3825 C114.404533,39.235 114.404533,38.94 114.404533,38.645 C114.404533,38.4975 114.404533,38.2025 114.260989,38.055 C114.117445,37.9075 113.973901,37.9075 113.686813,37.76 L113.686813,37.76 C114.117445,37.6125 114.404533,37.465 114.404533,37.0225 C114.404533,36.58 113.973901,36.285 113.112637,36.285 Z M113.543269,37.6125 C113.399725,37.6125 113.256181,37.76 112.969093,37.76 L112.251374,37.76 L112.251374,36.875 L113.112637,36.875 C113.256181,36.875 113.399725,36.875 113.543269,37.0225 C113.686813,37.0225 113.686813,37.17 113.686813,37.3175 C113.686813,37.465 113.686813,37.465 113.543269,37.6125 Z M113.112637,39.0875 L112.251374,39.0875 L112.251374,38.2025 L113.112637,38.2025 C113.399725,38.2025 113.543269,38.2025 113.686813,38.35 C113.830357,38.35 113.830357,38.4975 113.830357,38.645 C113.830357,38.94 113.543269,39.0875 113.112637,39.0875 Z M115.983516,36.285 L115.265797,36.285 L115.265797,39.6775 L116.557692,39.6775 C116.988324,39.6775 117.275412,39.53 117.5625,39.3825 C117.849588,39.235 117.849588,38.94 117.849588,38.645 C117.849588,38.35 117.706044,38.055 117.5625,37.9075 C117.275412,37.76 116.988324,37.6125 116.557692,37.6125 L115.839973,37.6125 L115.839973,36.285 L115.983516,36.285 Z M116.988324,39.0875 C116.84478,39.235 116.701236,39.235 116.414148,39.235 L115.839973,39.235 L115.839973,38.35 L116.414148,38.35 C116.701236,38.35 116.84478,38.35 116.988324,38.4975 C117.131868,38.4975 117.131868,38.645 117.131868,38.7925 C117.275412,38.7925 117.131868,38.94 116.988324,39.0875 Z M119.141484,36.285 L118.423764,36.285 L118.423764,39.6775 L119.141484,39.6775 L119.141484,36.285 Z M122.155907,39.6775 C122.299451,39.6775 122.442995,39.53 122.730082,39.53 L122.730082,38.94 C122.586538,39.0875 122.299451,39.0875 122.155907,39.0875 L121.581731,39.0875 C121.294643,39.0875 121.007555,38.94 120.864011,38.7925 C120.720467,38.645 120.576923,38.35 120.576923,38.055 L122.730082,38.055 L122.730082,37.6125 C122.730082,37.17 122.586538,36.7275 122.299451,36.4325 C122.012363,36.1375 121.725275,35.99 121.294643,35.99 C120.864011,35.99 120.433379,36.1375 120.146291,36.4325 C119.859203,36.7275 119.715659,37.17 119.715659,37.76 C119.715659,38.35 119.859203,38.645 120.146291,39.0875 C120.433379,39.3825 120.864011,39.53 121.294643,39.53 C121.725275,39.6775 122.012363,39.6775 122.155907,39.6775 Z M122.012363,37.0225 C122.155907,37.17 122.155907,37.3175 122.155907,37.6125 L120.720467,37.6125 C120.720467,37.3175 120.864011,37.17 121.007555,37.0225 C121.151099,36.875 121.294643,36.875 121.581731,36.875 C121.868819,36.875 121.868819,36.875 122.012363,37.0225 Z M127.036401,39.6775 C127.179945,39.6775 127.323489,39.53 127.467033,39.53 L127.467033,38.94 C127.179945,39.0875 126.892857,39.235 126.605769,39.235 C126.318681,39.235 126.175137,39.0875 126.031593,38.94 C125.888049,38.7925 125.888049,38.4975 125.888049,38.055 C125.888049,37.3175 126.175137,36.875 126.749313,36.875 C126.892857,36.875 127.179945,36.875 127.467033,37.0225 L127.610577,36.4325 C127.323489,36.285 127.036401,36.285 126.749313,36.285 C126.175137,36.285 125.888049,36.4325 125.600962,36.7275 C125.313874,37.0225 125.17033,37.465 125.17033,38.055 C125.17033,38.645 125.313874,39.0875 125.600962,39.3825 C125.888049,39.6775 126.175137,39.825 126.749313,39.825 C126.749313,39.6775 126.892857,39.6775 127.036401,39.6775 Z M128.184753,36.285 L128.184753,39.6775 L129.046016,39.6775 L130.625,37.0225 L130.625,37.465 L130.625,37.9075 L130.625,39.53 L131.34272,39.53 L131.34272,36.1375 L130.481456,36.1375 L128.902473,38.7925 L128.902473,37.9075 L128.902473,36.1375 L128.184753,36.1375 L128.184753,36.285 Z M134.070055,39.6775 C134.213599,39.6775 134.357143,39.53 134.500687,39.53 L134.500687,38.94 C134.213599,39.0875 133.926511,39.235 133.639423,39.235 C133.352335,39.235 133.208791,39.0875 133.065247,38.94 C132.921703,38.7925 132.921703,38.4975 132.921703,38.055 C132.921703,37.3175 133.208791,36.875 133.782967,36.875 C133.926511,36.875 134.213599,36.875 134.500687,37.0225 L134.644231,36.4325 C134.357143,36.285 134.070055,36.285 133.782967,36.285 C133.208791,36.285 132.921703,36.4325 132.634615,36.7275 C132.347527,37.0225 132.203984,37.465 132.203984,38.055 C132.203984,38.645 132.347527,39.0875 132.634615,39.3825 C132.921703,39.6775 133.208791,39.825 133.782967,39.825 C133.782967,39.6775 133.926511,39.6775 134.070055,39.6775 Z M134.931319,36.285 L134.931319,36.875 L135.936126,36.875 L135.936126,39.6775 L136.653846,39.6775 L136.653846,36.875 L137.658654,36.875 L137.658654,36.285 L134.931319,36.285 Z M140.385989,39.6775 C140.529533,39.6775 140.673077,39.53 140.960165,39.53 L140.960165,38.94 C140.816621,39.0875 140.529533,39.0875 140.385989,39.0875 L139.811813,39.0875 C139.524725,39.0875 139.237637,38.94 139.094093,38.7925 C138.950549,38.645 138.807005,38.35 138.807005,38.055 L140.960165,38.055 L140.960165,37.6125 C140.960165,37.17 140.816621,36.7275 140.529533,36.4325 C140.242445,36.1375 139.955357,35.99 139.524725,35.99 C139.094093,35.99 138.663462,36.1375 138.376374,36.4325 C138.089286,36.7275 137.945742,37.17 137.945742,37.76 C137.945742,38.35 138.089286,38.645 138.376374,39.0875 C138.663462,39.3825 139.094093,39.53 139.524725,39.53 C139.955357,39.6775 140.242445,39.6775 140.385989,39.6775 Z M140.242445,37.0225 C140.385989,37.17 140.385989,37.3175 140.385989,37.6125 L138.950549,37.6125 C138.950549,37.3175 139.094093,37.17 139.237637,37.0225 C139.381181,36.875 139.524725,36.875 139.811813,36.875 C140.098901,36.875 140.098901,36.875 140.242445,37.0225 Z M143.400412,38.055 L142.682692,36.285 L141.821429,36.285 L141.821429,39.6775 L142.395604,39.6775 L142.395604,37.0225 C142.539148,37.3175 142.539148,37.6125 142.682692,37.9075 L143.400412,39.6775 L143.974588,39.6775 L144.692308,37.9075 C144.692308,37.76 144.835852,37.465 144.979396,37.17 L144.979396,37.0225 L144.979396,39.6775 L145.553571,39.6775 L145.553571,36.285 L144.692308,36.285 L143.974588,38.055 C143.974588,38.2025 143.831044,38.4975 143.831044,38.7925 L143.831044,38.94 C143.543956,38.4975 143.543956,38.2025 143.400412,38.055 Z M147.276099,36.285 L146.558379,36.285 L146.558379,39.6775 L147.850275,39.6775 C148.280907,39.6775 148.567995,39.53 148.855082,39.3825 C149.14217,39.235 149.14217,38.94 149.14217,38.645 C149.14217,38.35 148.998626,38.055 148.855082,37.9075 C148.567995,37.76 148.280907,37.6125 147.850275,37.6125 L147.132555,37.6125 L147.132555,36.285 L147.276099,36.285 Z M148.424451,39.0875 C148.280907,39.235 148.137363,39.235 147.850275,39.235 L147.276099,39.235 L147.276099,38.35 L147.850275,38.35 C148.137363,38.35 148.280907,38.35 148.424451,38.4975 C148.567995,38.4975 148.567995,38.645 148.567995,38.7925 C148.567995,38.7925 148.567995,38.94 148.424451,39.0875 Z M150.57761,36.285 L149.85989,36.285 L149.85989,39.6775 L150.57761,39.6775 L150.57761,36.285 Z" id="XMLID_2_" fill="#02A5DA"></path>
                    </g>
                </g>
            </g>
        </g>
    </g>
</svg>