<?xml version="1.0" encoding="UTF-8"?>
<svg width="86px" height="94px" viewBox="0 0 86 94" version="1.1" xmlns="http://www.w3.org/2000/svg" xmlns:xlink="http://www.w3.org/1999/xlink">
    <!-- Generator: Sketch 43.2 (39069) - http://www.bohemiancoding.com/sketch -->
    <title>doc</title>
    <desc>Created with Sketch.</desc>
    <defs></defs>
    <g id="Page-1" stroke="none" stroke-width="1" fill="none" fill-rule="evenodd">
        <g id="Desktop-HD" transform="translate(-997.000000, -719.000000)">
            <g id="тригеры" transform="translate(0.000000, 619.000000)">
                <g id="3" transform="translate(890.000000, 100.000000)">
                    <g id="doc" transform="translate(107.000000, 0.000000)">
                        <path d="M35.2130244,1.84696252 C39.5136523,-0.635826163 46.4824468,-0.638078203 50.7869756,1.84696252 L78.2130244,17.6802514 C82.5136523,20.1630401 86,26.1966297 86,31.1667111 L86,62.8332889 C86,67.7988662 82.5175532,73.8347079 78.2130244,76.3197486 L50.7869756,92.1530375 C46.4863477,94.6358262 39.5175532,94.6380782 35.2130244,92.1530375 L7.78697561,76.3197486 C3.48634773,73.8369599 2.11027136e-14,67.8033703 1.8354796e-14,62.8332889 L8.46603307e-16,31.1667111 C-1.89882394e-15,26.2011338 3.4824468,20.1652921 7.78697561,17.6802514 L35.2130244,1.84696252 Z" id="Polygon" fill="#FFFFFF"></path>
                        <path d="M63.1884184,34.8409552 L50.8657806,23.510806 C50.6010098,23.2700896 50.254937,23 49.895194,23 L37.2056184,23 C33.3153572,23 30.6338327,25.0131343 30.6338327,27.926806 L30.6338327,31.5970149 L28.2177985,31.5970149 C24.6592205,31.5970149 22,33.8351045 22,36.8762985 L22,65.5337313 C22,68.7518806 24.9333447,71 28.2177985,71 L49.2490955,71 C52.6141318,71 55.0963587,68.6444179 55.0963587,65.5337313 L55.0963587,62.4029851 L58.2369153,62.4029851 C61.4098488,62.4029851 63.7301914,59.886209 63.7301914,56.5842388 L63.7301914,36.2931343 C63.7301914,36.2723582 63.904307,36.2522985 63.9035875,36.2322388 C63.904307,36.2107463 63.9999986,36.1899701 63.9999986,36.1684776 C64.0007181,35.5666866 63.7165211,35.0530149 63.1884184,34.8409552 Z M50.7794423,27.7749254 L58.8017119,34.4626866 L50.7794423,34.4626866 L50.7794423,27.7749254 Z M52.2184144,65.5337313 C52.2184144,67.2266269 50.8240505,68.1343284 49.2490955,68.1343284 L28.218518,68.1343284 C26.5471519,68.1343284 24.8786637,67.1449552 24.8786637,65.5337313 L24.8786637,36.8762985 C24.8786637,35.0136119 27.1054731,34.4626866 28.218518,34.4626866 L39.2683849,34.4626866 L39.2683849,45.4819104 C39.2683849,46.2728358 40.2727874,46.641791 41.0671,46.641791 L52.2191339,46.641791 L52.2191339,65.5337313 L52.2184144,65.5337313 Z M50.5751083,43.7761194 L42.1456096,43.7761194 L42.1456096,36.6993433 L50.5751083,43.7761194 Z M58.2369153,59.5373134 L55.0963587,59.5373134 L55.0963587,45.2426269 C55.0963587,44.84 55.1064315,44.4567164 54.8085642,44.185194 L42.2679223,32.6802388 C42.0348088,32.2023881 41.5916054,31.8692537 41.0217724,31.8692537 C40.9958709,31.8692537 40.9937124,31.7388657 40.9678109,31.7402985 C40.9404705,31.7388657 40.9361536,31.5962985 40.9080936,31.5962985 L33.5117769,31.5962985 L33.5117769,27.9260896 C33.5117769,26.4481194 35.6846248,25.8649552 37.2056184,25.8649552 L47.9014981,25.8649552 L47.9014981,36.1677612 C47.9014981,36.9586866 48.9059006,37.3276418 49.7002132,37.3276418 L60.8522471,37.3276418 L60.8522471,56.5835224 C60.8522471,58.302209 59.8226626,59.5373134 58.2369153,59.5373134 Z" id="docs" fill="#5599EE" fill-rule="nonzero"></path>
                    </g>
                </g>
            </g>
        </g>
    </g>
</svg>