<?xml version="1.0" encoding="UTF-8"?>
<svg width="86px" height="94px" viewBox="0 0 86 94" version="1.1" xmlns="http://www.w3.org/2000/svg" xmlns:xlink="http://www.w3.org/1999/xlink">
    <!-- Generator: Sketch 43.2 (39069) - http://www.bohemiancoding.com/sketch -->
    <title>eco</title>
    <desc>Created with Sketch.</desc>
    <defs></defs>
    <g id="Page-1" stroke="none" stroke-width="1" fill="none" fill-rule="evenodd">
        <g id="Desktop-HD" transform="translate(-357.000000, -719.000000)">
            <g id="тригеры" transform="translate(0.000000, 619.000000)">
                <g id="1" transform="translate(250.000000, 100.000000)">
                    <g id="eco" transform="translate(107.000000, 0.000000)">
                        <path d="M35.2130244,1.84696252 C39.5136523,-0.635826163 46.4824468,-0.638078203 50.7869756,1.84696252 L78.2130244,17.6802514 C82.5136523,20.1630401 86,26.1966297 86,31.1667111 L86,62.8332889 C86,67.7988662 82.5175532,73.8347079 78.2130244,76.3197486 L50.7869756,92.1530375 C46.4863477,94.6358262 39.5175532,94.6380782 35.2130244,92.1530375 L7.78697561,76.3197486 C3.48634773,73.8369599 2.11027136e-14,67.8033703 1.8354796e-14,62.8332889 L8.46603307e-16,31.1667111 C-1.89882394e-15,26.2011338 3.4824468,20.1652921 7.78697561,17.6802514 L35.2130244,1.84696252 Z" id="Polygon" fill="#FFFFFF"></path>
                        <path d="M44.6197712,53.5313369 C44.6281647,57.2041681 44.6,67 44.6,67 L41.4,67 L41.4,53.6666667 C41.4,48.2013333 35.9984,44.3333333 30.2,44.3333333 L22.2,44.3333333 C22.2,49.7426667 29.1312,53.708 33.4,53.6666667 C33.4,53.6666667 39.7212,53.6666667 41.95,53.6666667 L41.95,56.3333333 L33.5696,56.3333333 C26.2336,56.3333333 19.8384,51.56 19,45.6666667 L19,41.6666667 L30.1152,41.6666667 C34.6106306,41.6666667 38.7051413,43.4214346 41.4016952,46.1390955 C41.4052466,42.2447043 41.4161701,36.2523954 41.4496,37.6666667 C42.2656,31.72 48.5472,27 55.9056,27 L67,27 L67,31 C66.1616,36.8946667 59.7792,41.6666667 52.4576,41.6666667 L44.0868,41.6666667 L44.0868,39 C46.3108,39 52.6272,39 52.6272,39 C56.8864,39.0413333 63.8048,35.0773333 63.8048,29.6666667 L55.8208,29.6666667 C50.0336,29.6666667 44.6432,33.5346667 44.6432,39 L44.6432,53.5625 L44.6197712,53.5313369 Z" fill="#5599EE" fill-rule="nonzero"></path>
                    </g>
                </g>
            </g>
        </g>
    </g>
</svg>