<?xml version="1.0" encoding="UTF-8"?>
<svg width="187px" height="60px" viewBox="0 0 187 60" version="1.1" xmlns="http://www.w3.org/2000/svg" xmlns:xlink="http://www.w3.org/1999/xlink">
    <!-- Generator: Sketch 43.2 (39069) - http://www.bohemiancoding.com/sketch -->
    <title>логотип</title>
    <desc>Created with Sketch.</desc>
    <defs></defs>
    <g id="Page-1" stroke="none" stroke-width="1" fill="none" fill-rule="evenodd">
        <g id="Desktop-HD" transform="translate(-250.000000, -30.000000)">
            <g id="шапка">
                <g id="логотип" transform="translate(250.000000, 30.000000)">
                    <path d="M42.6776695,52.7207794 C32.9145622,62.4264069 17.0854378,62.4264069 7.32233047,52.7207794 C-2.44077682,43.0151519 -2.44077682,27.2792206 7.32233047,17.5735931 L25,0 L42.6776695,17.5735931 C52.4407768,27.2792206 52.4407768,43.0151519 42.6776695,52.7207794 Z M32.0193883,22.2176623 L32.0193882,22.2176622 L25,15.2396003 L17.9268405,22.2711169 C13.9958356,20.6048542 13.8469655,20.7528478 13.471185,21.1264159 L10.7770228,23.8047164 C10.3804068,24.1989973 10.2214301,24.3561538 12.3228107,28.8671185 C12.0206485,29.4697164 11.7646616,30.0893687 11.5548501,30.7208631 C8.91204461,31.7715823 7.42246502,32.4546236 7.12179822,32.7535202 L6.87518044,33.014734 L6.87626019,37.1000941 C6.86387987,37.6964388 6.86046752,37.9125426 11.5731765,39.6282899 C11.7835807,40.252922 12.0392609,40.8657948 12.3402171,41.4618474 C10.3406122,46.0558149 10.4771564,46.1915552 10.8916693,46.6036277 L13.5874043,49.2834917 C14.0026353,49.696278 14.1538541,49.8466066 18.696103,47.7563526 C19.2957895,48.0527342 19.9122149,48.3042258 20.5403088,48.5108275 C22.3957924,53.1628831 22.6027666,53.1659149 23.1788848,53.1716433 L26.9951325,53.1682496 L27.3517714,53.1450634 L27.574069,52.9240746 C27.6865558,52.81225 28.0187566,52.4820051 29.4978182,48.4982263 C30.1319413,48.2876476 30.754048,48.0312438 31.3589124,47.729013 C35.982075,49.7130996 36.1251871,49.5692082 36.5232406,49.1734982 L39.2178548,46.4947484 C39.6224506,46.0925346 39.7706705,45.9451874 37.6743506,41.432912 C37.9776593,40.8287131 38.2345304,40.2073464 38.444964,39.5740689 C41.0872692,38.5253246 42.576382,37.845786 42.8752379,37.5486895 L43.1242801,37.2864411 L43.1263373,33.1728971 C43.1177018,32.5894882 43.1158803,32.379579 38.4282043,30.6701841 C38.2172257,30.0432041 37.9606374,29.4280589 37.6584396,28.8298654 C39.6576755,24.2368554 39.5104954,24.0905418 39.1055633,23.6879937 L36.4128263,21.01111 C36.0189819,20.620279 35.8629967,20.4652625 32.0193883,22.2176623 Z" id="лого" fill="#3578CB"></path>
                    <path d="M30.3033009,40.4192642 C33.232233,37.507576 33.232233,32.7867966 30.3033009,29.8751083 L25,24.6030304 L19.6966991,29.8751083 C16.767767,32.7867966 16.767767,37.507576 19.6966991,40.4192642 C22.6256313,43.3309524 27.3743687,43.3309524 30.3033009,40.4192642 Z" id="Oval" fill="#5599EE"></path>
                    <path d="M77.472,18.752 L73.152,18.752 L73.152,28 L70.96,28 L70.96,16.8 L77.472,16.8 L77.472,18.752 Z M82.464,25.52 L79.024,25.52 L78.176,28 L75.984,28 L80.016,16.72 L81.632,16.72 L85.664,28 L83.36,28 L82.464,25.52 Z M79.584,23.76 L81.984,23.76 L81.152,21.264 L80.816,19.504 L80.736,19.504 L80.4,21.28 L79.584,23.76 Z M87.584,23.04 L87.584,21.328 L88.32,21.328 C88.4586674,21.328 88.5999993,21.3253334 88.744,21.32 C88.8880007,21.3146666 89.0293326,21.3040001 89.168,21.288 C89.3066674,21.2719999 89.4186662,21.2533334 89.504,21.232 C89.8773352,21.1466662 90.197332,20.9946678 90.464,20.776 C90.730668,20.5573322 90.864,20.2613352 90.864,19.888 C90.864,19.3759974 90.701335,19.0266676 90.376,18.84 C90.050665,18.6533324 89.621336,18.56 89.088,18.56 C88.6079976,18.56 88.1600021,18.6239994 87.744,18.752 C87.3279979,18.8800006 87.0133344,19.0026661 86.8,19.12 L86.24,17.264 C86.3573339,17.1999997 86.5253322,17.130667 86.744,17.056 C86.9626678,16.981333 87.2133319,16.9093337 87.496,16.84 C87.7786681,16.7706663 88.0853317,16.7146669 88.416,16.672 C88.7466683,16.6293331 89.082665,16.608 89.424,16.608 C89.8933357,16.608 90.3519978,16.6506662 90.8,16.736 C91.2480022,16.8213338 91.6479982,16.9706656 92,17.184 C92.3520018,17.3973344 92.6346656,17.6826649 92.848,18.04 C93.0613344,18.3973351 93.168,18.8533306 93.168,19.408 C93.168,19.9626694 93.0213348,20.4746643 92.728,20.944 C92.4346652,21.4133357 91.9626699,21.7546656 91.312,21.968 L91.312,22.048 C92.0053368,22.1866674 92.5466647,22.485331 92.936,22.944 C93.3253353,23.402669 93.52,24.0159962 93.52,24.784 C93.52,25.392003 93.3973346,25.9119978 93.152,26.344 C92.9066654,26.7760022 92.584002,27.1306653 92.184,27.408 C91.783998,27.6853347 91.3226693,27.890666 90.8,28.024 C90.2773307,28.157334 89.7440027,28.224 89.2,28.224 C88.4959965,28.224 87.8560029,28.1653339 87.28,28.048 C86.7039971,27.9306661 86.2613349,27.7920008 85.952,27.632 L86.512,25.728 C86.7573346,25.8453339 87.109331,25.9653327 87.568,26.088 C88.026669,26.2106673 88.5706635,26.272 89.2,26.272 C89.4346678,26.272 89.6719988,26.242667 89.912,26.184 C90.1520012,26.125333 90.367999,26.029334 90.56,25.896 C90.752001,25.762666 90.9066661,25.5893344 91.024,25.376 C91.1413339,25.1626656 91.2,24.9066682 91.2,24.608 C91.2,24.1066642 91.0133352,23.7280013 90.64,23.472 C90.2666648,23.2159987 89.6000048,23.0773334 88.64,23.056 C88.5119994,23.0453333 88.4160003,23.04 88.352,23.04 L87.584,23.04 Z M94.688,22.4 C94.688,20.533324 95.0986626,19.096005 95.92,18.088 C96.7413374,17.079995 97.914659,16.576 99.44,16.576 C100.240004,16.576 100.938664,16.7146653 101.536,16.992 C102.133336,17.2693347 102.629331,17.6639974 103.024,18.176 C103.418669,18.6880026 103.711999,19.3013298 103.904,20.016 C104.096001,20.7306702 104.192,21.525329 104.192,22.4 C104.192,24.266676 103.778671,25.703995 102.952,26.712 C102.125329,27.720005 100.954674,28.224 99.44,28.224 C98.6293293,28.224 97.9253363,28.0853347 97.328,27.808 C96.7306637,27.5306653 96.2373353,27.1360026 95.848,26.624 C95.4586647,26.1119974 95.168001,25.4986702 94.976,24.784 C94.783999,24.0693298 94.688,23.274671 94.688,22.4 Z M96.992,22.4 C96.992,22.9653362 97.0399995,23.485331 97.136,23.96 C97.2320005,24.434669 97.3786657,24.842665 97.576,25.184 C97.7733343,25.525335 98.0266651,25.791999 98.336,25.984 C98.6453349,26.176001 99.0133312,26.272 99.44,26.272 C100.218671,26.272 100.821331,25.968003 101.248,25.36 C101.674669,24.751997 101.888,23.7653402 101.888,22.4 C101.888,21.8559973 101.842667,21.3493357 101.752,20.88 C101.661333,20.4106643 101.520001,20.0000018 101.328,19.648 C101.135999,19.2959982 100.885335,19.0213343 100.576,18.824 C100.266665,18.6266657 99.8880022,18.528 99.44,18.528 C98.6613294,18.528 98.0586688,18.8399969 97.632,19.464 C97.2053312,20.0880031 96.992,21.06666 96.992,22.4 Z M114.448,22.192 L114.688,19.968 L114.592,19.968 L113.904,21.76 L111.52,25.936 L110.816,25.936 L108.304,21.744 L107.6,19.968 L107.52,19.968 L107.84,22.176 L107.84,28 L105.76,28 L105.76,16.8 L107.76,16.8 L110.752,21.92 L111.28,23.2 L111.344,23.2 L111.824,21.888 L114.656,16.8 L116.64,16.8 L116.64,28 L114.448,28 L114.448,22.192 Z M118.208,22.4 C118.208,20.533324 118.618663,19.096005 119.44,18.088 C120.261337,17.079995 121.434659,16.576 122.96,16.576 C123.760004,16.576 124.458664,16.7146653 125.056,16.992 C125.653336,17.2693347 126.149331,17.6639974 126.544,18.176 C126.938669,18.6880026 127.231999,19.3013298 127.424,20.016 C127.616001,20.7306702 127.712,21.525329 127.712,22.4 C127.712,24.266676 127.298671,25.703995 126.472,26.712 C125.645329,27.720005 124.474674,28.224 122.96,28.224 C122.149329,28.224 121.445336,28.0853347 120.848,27.808 C120.250664,27.5306653 119.757335,27.1360026 119.368,26.624 C118.978665,26.1119974 118.688001,25.4986702 118.496,24.784 C118.303999,24.0693298 118.208,23.274671 118.208,22.4 Z M120.512,22.4 C120.512,22.9653362 120.56,23.485331 120.656,23.96 C120.752,24.434669 120.898666,24.842665 121.096,25.184 C121.293334,25.525335 121.546665,25.791999 121.856,25.984 C122.165335,26.176001 122.533331,26.272 122.96,26.272 C123.738671,26.272 124.341331,25.968003 124.768,25.36 C125.194669,24.751997 125.408,23.7653402 125.408,22.4 C125.408,21.8559973 125.362667,21.3493357 125.272,20.88 C125.181333,20.4106643 125.040001,20.0000018 124.848,19.648 C124.655999,19.2959982 124.405335,19.0213343 124.096,18.824 C123.786665,18.6266657 123.408002,18.528 122.96,18.528 C122.181329,18.528 121.578669,18.8399969 121.152,19.464 C120.725331,20.0880031 120.512,21.06666 120.512,22.4 Z M136.608,18.752 L133.344,18.752 L133.344,28 L131.152,28 L131.152,18.752 L127.872,18.752 L127.872,16.8 L136.608,16.8 L136.608,18.752 Z M136.768,22.4 C136.768,20.533324 137.178663,19.096005 138,18.088 C138.821337,17.079995 139.994659,16.576 141.52,16.576 C142.320004,16.576 143.018664,16.7146653 143.616,16.992 C144.213336,17.2693347 144.709331,17.6639974 145.104,18.176 C145.498669,18.6880026 145.791999,19.3013298 145.984,20.016 C146.176001,20.7306702 146.272,21.525329 146.272,22.4 C146.272,24.266676 145.858671,25.703995 145.032,26.712 C144.205329,27.720005 143.034674,28.224 141.52,28.224 C140.709329,28.224 140.005336,28.0853347 139.408,27.808 C138.810664,27.5306653 138.317335,27.1360026 137.928,26.624 C137.538665,26.1119974 137.248001,25.4986702 137.056,24.784 C136.863999,24.0693298 136.768,23.274671 136.768,22.4 Z M139.072,22.4 C139.072,22.9653362 139.12,23.485331 139.216,23.96 C139.312,24.434669 139.458666,24.842665 139.656,25.184 C139.853334,25.525335 140.106665,25.791999 140.416,25.984 C140.725335,26.176001 141.093331,26.272 141.52,26.272 C142.298671,26.272 142.901331,25.968003 143.328,25.36 C143.754669,24.751997 143.968,23.7653402 143.968,22.4 C143.968,21.8559973 143.922667,21.3493357 143.832,20.88 C143.741333,20.4106643 143.600001,20.0000018 143.408,19.648 C143.215999,19.2959982 142.965335,19.0213343 142.656,18.824 C142.346665,18.6266657 141.968002,18.528 141.52,18.528 C140.741329,18.528 140.138669,18.8399969 139.712,19.464 C139.285331,20.0880031 139.072,21.06666 139.072,22.4 Z M147.84,16.912 C148.288002,16.8266662 148.781331,16.7600002 149.32,16.712 C149.858669,16.6639998 150.394664,16.64 150.928,16.64 C151.482669,16.64 152.039997,16.6853329 152.6,16.776 C153.160003,16.8666671 153.663998,17.0479986 154.112,17.32 C154.560002,17.5920014 154.925332,17.9706642 155.208,18.456 C155.490668,18.9413358 155.632,19.5733294 155.632,20.352 C155.632,21.0560035 155.509335,21.6506642 155.264,22.136 C155.018665,22.6213358 154.693335,23.0186651 154.288,23.328 C153.882665,23.6373349 153.421336,23.8613326 152.904,24 C152.386664,24.1386674 151.850669,24.208 151.296,24.208 L151.04,24.208 C150.922666,24.208 150.800001,24.2053334 150.672,24.2 C150.543999,24.1946666 150.418667,24.1866667 150.296,24.176 C150.173333,24.1653333 150.085334,24.1546667 150.032,24.144 L150.032,28 L147.84,28 L147.84,16.912 Z M151.104,18.528 C150.890666,18.528 150.688001,18.5359999 150.496,18.552 C150.303999,18.5680001 150.149334,18.5866666 150.032,18.608 L150.032,22.24 C150.074667,22.2506667 150.138666,22.2613333 150.224,22.272 C150.309334,22.2826667 150.4,22.2906666 150.496,22.296 C150.592,22.3013334 150.685333,22.304 150.776,22.304 L150.976,22.304 C151.264001,22.304 151.549332,22.2773336 151.832,22.224 C152.114668,22.1706664 152.367999,22.0720007 152.592,21.928 C152.816001,21.7839993 152.994666,21.5840013 153.128,21.328 C153.261334,21.0719987 153.328,20.7360021 153.328,20.32 C153.328,19.9679982 153.264001,19.6773345 153.136,19.448 C153.007999,19.2186655 152.840001,19.0346674 152.632,18.896 C152.423999,18.7573326 152.186668,18.6613336 151.92,18.608 C151.653332,18.5546664 151.381335,18.528 151.104,18.528 Z M163.28,23.312 L159.184,23.312 L159.184,28 L156.992,28 L156.992,16.8 L159.184,16.8 L159.184,21.36 L163.28,21.36 L163.28,16.8 L165.472,16.8 L165.472,28 L163.28,28 L163.28,23.312 Z M176.048,16.8 L178.24,16.8 L178.24,28 L176.048,28 L176.048,16.8 Z M167.408,16.8 L169.6,16.8 L169.6,20.816 C169.717334,20.7946666 169.903999,20.7680002 170.16,20.736 C170.416001,20.7039998 170.666665,20.688 170.912,20.688 C171.445336,20.688 171.954664,20.7413328 172.44,20.848 C172.925336,20.9546672 173.349332,21.1439986 173.712,21.416 C174.074668,21.6880014 174.362666,22.0559977 174.576,22.52 C174.789334,22.9840023 174.896,23.5679965 174.896,24.272 C174.896,25.5733398 174.517337,26.5466634 173.76,27.192 C173.002663,27.8373366 171.877341,28.16 170.384,28.16 C170.234666,28.16 170.042668,28.1573334 169.808,28.152 C169.573332,28.1466666 169.320001,28.1333334 169.048,28.112 C168.775999,28.0906666 168.496001,28.0640002 168.208,28.032 C167.919999,27.9999998 167.653335,27.9520003 167.408,27.888 L167.408,16.8 Z M170.544,26.208 C171.152003,26.208 171.645331,26.0666681 172.024,25.784 C172.402669,25.5013319 172.592,25.0293366 172.592,24.368 C172.592,24.0159982 172.538667,23.7280011 172.432,23.504 C172.325333,23.2799989 172.181334,23.1040006 172,22.976 C171.818666,22.8479994 171.605335,22.7600002 171.36,22.712 C171.114665,22.6639998 170.848001,22.64 170.56,22.64 C170.410666,22.64 170.234668,22.6533332 170.032,22.68 C169.829332,22.7066668 169.685334,22.7359998 169.6,22.768 L169.6,26.112 C169.717334,26.1440002 169.858666,26.1679999 170.024,26.184 C170.189334,26.2000001 170.362666,26.208 170.544,26.208 Z M180.176,16.8 L186.816,16.8 L186.816,18.752 L182.368,18.752 L182.368,21.36 L186.416,21.36 L186.416,23.312 L182.368,23.312 L182.368,26.048 L186.896,26.048 L186.896,28 L180.176,28 L180.176,16.8 Z M78.544,47.536 C78.202665,47.7813346 77.7680026,47.9573328 77.24,48.064 C76.7119974,48.1706672 76.1706694,48.224 75.616,48.224 C74.9439966,48.224 74.3066697,48.120001 73.704,47.912 C73.1013303,47.703999 72.570669,47.3680023 72.112,46.904 C71.653331,46.4399977 71.2880014,45.837337 71.016,45.096 C70.7439986,44.354663 70.608,43.4560053 70.608,42.4 C70.608,41.3013278 70.7599985,40.381337 71.064,39.64 C71.3680015,38.898663 71.7626642,38.3013356 72.248,37.848 C72.7333358,37.3946644 73.2746637,37.0693343 73.872,36.872 C74.4693363,36.6746657 75.0666637,36.576 75.664,36.576 C76.3040032,36.576 76.8453311,36.6186662 77.288,36.704 C77.7306689,36.7893338 78.0959986,36.8906661 78.384,37.008 L77.952,38.864 C77.7066654,38.7466661 77.4160017,38.6613336 77.08,38.608 C76.7439983,38.5546664 76.3360024,38.528 75.856,38.528 C74.9706622,38.528 74.2586694,38.8426635 73.72,39.472 C73.1813306,40.1013365 72.912,41.0773267 72.912,42.4 C72.912,42.9760029 72.9759994,43.501331 73.104,43.976 C73.2320006,44.450669 73.4266654,44.8559983 73.688,45.192 C73.9493346,45.5280017 74.2746647,45.7893324 74.664,45.976 C75.0533353,46.1626676 75.5039974,46.256 76.016,46.256 C76.4960024,46.256 76.9013317,46.2080005 77.232,46.112 C77.5626683,46.0159995 77.8506654,45.8933341 78.096,45.744 L78.544,47.536 Z M86.432,41.792 L86.56,40.336 L86.48,40.336 L85.728,41.84 L81.552,48 L79.904,48 L79.904,36.8 L82.096,36.8 L82.096,42.896 L81.936,44.4 L82.032,44.4 L82.816,42.848 L86.992,36.8 L88.624,36.8 L88.624,48 L86.432,48 L86.432,41.792 Z M98.144,47.536 C97.802665,47.7813346 97.3680026,47.9573328 96.84,48.064 C96.3119974,48.1706672 95.7706694,48.224 95.216,48.224 C94.5439966,48.224 93.9066697,48.120001 93.304,47.912 C92.7013303,47.703999 92.170669,47.3680023 91.712,46.904 C91.253331,46.4399977 90.8880014,45.837337 90.616,45.096 C90.3439986,44.354663 90.208,43.4560053 90.208,42.4 C90.208,41.3013278 90.3599985,40.381337 90.664,39.64 C90.9680015,38.898663 91.3626642,38.3013356 91.848,37.848 C92.3333358,37.3946644 92.8746637,37.0693343 93.472,36.872 C94.0693363,36.6746657 94.6666637,36.576 95.264,36.576 C95.9040032,36.576 96.4453311,36.6186662 96.888,36.704 C97.3306689,36.7893338 97.6959986,36.8906661 97.984,37.008 L97.552,38.864 C97.3066654,38.7466661 97.0160017,38.6613336 96.68,38.608 C96.3439983,38.5546664 95.9360024,38.528 95.456,38.528 C94.5706622,38.528 93.8586694,38.8426635 93.32,39.472 C92.7813306,40.1013365 92.512,41.0773267 92.512,42.4 C92.512,42.9760029 92.5759994,43.501331 92.704,43.976 C92.8320006,44.450669 93.0266654,44.8559983 93.288,45.192 C93.5493346,45.5280017 93.8746647,45.7893324 94.264,45.976 C94.6533353,46.1626676 95.1039974,46.256 95.616,46.256 C96.0960024,46.256 96.5013317,46.2080005 96.832,46.112 C97.1626683,46.0159995 97.4506654,45.8933341 97.696,45.744 L98.144,47.536 Z M107.36,38.752 L104.096,38.752 L104.096,48 L101.904,48 L101.904,38.752 L98.624,38.752 L98.624,36.8 L107.36,36.8 L107.36,38.752 Z M108.496,36.8 L115.136,36.8 L115.136,38.752 L110.688,38.752 L110.688,41.36 L114.736,41.36 L114.736,43.312 L110.688,43.312 L110.688,46.048 L115.216,46.048 L115.216,48 L108.496,48 L108.496,36.8 Z M125.536,42.192 L125.776,39.968 L125.68,39.968 L124.992,41.76 L122.608,45.936 L121.904,45.936 L119.392,41.744 L118.688,39.968 L118.608,39.968 L118.928,42.176 L118.928,48 L116.848,48 L116.848,36.8 L118.848,36.8 L121.84,41.92 L122.368,43.2 L122.432,43.2 L122.912,41.888 L125.744,36.8 L127.728,36.8 L127.728,48 L125.536,48 L125.536,42.192 Z M138.288,36.8 L140.48,36.8 L140.48,48 L138.288,48 L138.288,36.8 Z M129.648,36.8 L131.84,36.8 L131.84,40.816 C131.957334,40.7946666 132.143999,40.7680002 132.4,40.736 C132.656001,40.7039998 132.906665,40.688 133.152,40.688 C133.685336,40.688 134.194664,40.7413328 134.68,40.848 C135.165336,40.9546672 135.589332,41.1439986 135.952,41.416 C136.314668,41.6880014 136.602666,42.0559977 136.816,42.52 C137.029334,42.9840023 137.136,43.5679965 137.136,44.272 C137.136,45.5733398 136.757337,46.5466634 136,47.192 C135.242663,47.8373366 134.117341,48.16 132.624,48.16 C132.474666,48.16 132.282668,48.1573334 132.048,48.152 C131.813332,48.1466666 131.560001,48.1333334 131.288,48.112 C131.015999,48.0906666 130.736001,48.0640002 130.448,48.032 C130.159999,47.9999998 129.893335,47.9520003 129.648,47.888 L129.648,36.8 Z M132.784,46.208 C133.392003,46.208 133.885331,46.0666681 134.264,45.784 C134.642669,45.5013319 134.832,45.0293366 134.832,44.368 C134.832,44.0159982 134.778667,43.7280011 134.672,43.504 C134.565333,43.2799989 134.421334,43.1040006 134.24,42.976 C134.058666,42.8479994 133.845335,42.7600002 133.6,42.712 C133.354665,42.6639998 133.088001,42.64 132.8,42.64 C132.650666,42.64 132.474668,42.6533332 132.272,42.68 C132.069332,42.7066668 131.925334,42.7359998 131.84,42.768 L131.84,46.112 C131.957334,46.1440002 132.098666,46.1679999 132.264,46.184 C132.429334,46.2000001 132.602666,46.208 132.784,46.208 Z" id="ГАЗОМОТОРНЫЕ-СИСТЕМЫ" fill="#37393D"></path>
                </g>
            </g>
        </g>
    </g>
</svg>