<?xml version="1.0" encoding="UTF-8"?>
<svg width="190px" height="118px" viewBox="0 0 190 118" version="1.1" xmlns="http://www.w3.org/2000/svg" xmlns:xlink="http://www.w3.org/1999/xlink">
    <!-- Generator: Sketch 43.2 (39069) - http://www.bohemiancoding.com/sketch -->
    <title>Lovato</title>
    <desc>Created with Sketch.</desc>
    <defs></defs>
    <g id="Page-1" stroke="none" stroke-width="1" fill="none" fill-rule="evenodd">
        <g id="Desktop-HD" transform="translate(-1000.000000, -1044.000000)" fill-rule="nonzero">
            <g id="логотипы" transform="translate(0.000000, 964.000000)">
                <g id="Lovato" transform="translate(1000.000000, 80.000000)">
                    <rect id="1" fill="#FFFFFF" x="0" y="0" width="190" height="118"></rect>
                    <g id="2" transform="translate(14.615385, 45.725000)">
                        <path d="M2.17255717,22.8625 C2.17255717,22.8625 4.05544006,19.175 6.37283437,16.225 C8.54539155,13.275 11.007623,10.7675 11.007623,10.7675 C11.007623,10.7675 14.1940402,7.5225 17.2356202,10.7675 C20.2772003,14.0125 17.3804574,17.2575 17.3804574,17.2575 C17.3804574,17.2575 14.6285516,19.6175 11.4421344,21.6825 C8.25571726,23.6 4.63478863,25.2225 4.63478863,25.2225 C4.63478863,25.2225 3.33125433,26.255 2.31739432,25.2225 C1.3035343,24.19 2.17255717,22.8625 2.17255717,22.8625 L2.17255717,22.8625 Z" id="Shape" fill="#009EE2"></path>
                        <path d="M0.869022869,19.6175 C0.869022869,19.6175 3.47609148,14.3075 6.37283437,11.3575 C9.55925156,7.965 12.7456687,6.9325 12.7456687,6.9325 C12.7456687,6.9325 15.9320859,5.605 18.973666,8.26 C22.015246,10.915 21.4358974,14.8975 21.4358974,14.8975 C21.4358974,14.8975 20.7117117,18.4375 17.3804574,21.535 C13.9043659,24.78 7.96604297,27.5825 7.96604297,27.5825 C7.96604297,27.5825 19.5530146,30.2375 25.2016632,21.0925 C30.8503119,11.9475 22.5945946,4.13 22.5945946,4.13 C22.5945946,4.13 12.4559945,-2.8025 4.92446292,5.7525 C-2.60706861,14.3075 0.869022869,19.6175 0.869022869,19.6175 L0.869022869,19.6175 Z" id="Shape" fill="#164193"></path>
                        <polygon id="Shape" fill="#009EE2" points="43.5959806 1.475 36.2092862 1.475 30.7054747 25.96 46.3478863 25.96 47.5065835 19.0275 40.1198891 19.0275"></polygon>
                        <path d="M66.6250866,1.77 C55.7623008,-0.4425 51.1275121,10.325 51.1275121,10.325 C51.1275121,10.325 44.4650035,24.6325 56.1968122,26.4025 C67.9286209,28.1725 72.7082467,15.93 72.7082467,15.93 C72.7082467,15.93 77.4878725,3.9825 66.6250866,1.77 L66.6250866,1.77 L66.6250866,1.77 Z M65.6112266,14.3075 C65.6112266,14.3075 63.4386694,19.3225 59.0935551,18.88 C54.7484407,18.4375 57.5003465,12.8325 57.5003465,12.8325 C57.5003465,12.8325 59.962578,7.5225 63.7283437,8.555 C67.4941095,9.5875 65.6112266,14.3075 65.6112266,14.3075 L65.6112266,14.3075 Z" id="Shape" fill="#009EE2"></path>
                        <polygon id="Shape" fill="#009EE2" points="76.9085239 1.77 85.5987526 1.77 87.1919612 15.635 93.8544699 1.6225 101.530839 1.6225 87.4816355 26.255 81.2536383 26.255"></polygon>
                        <path d="M114.566182,1.9175 L105.296604,1.9175 L92.4060984,26.1075 L100.661816,26.1075 L102.255024,22.715 L108.917533,22.715 L109.641719,26.55 L117.318087,26.55 L114.566182,1.9175 L114.566182,1.9175 L114.566182,1.9175 Z M104.137907,16.9625 L108.193347,9.44 L108.917533,16.9625 L104.137907,16.9625 L104.137907,16.9625 Z" id="Shape" fill="#009EE2"></path>
                        <polygon id="Shape" fill="#009EE2" points="119.490644 1.9175 137.160776 1.9175 135.42273 8.26 130.643105 8.26 126.587665 26.4025 119.056133 26.4025 123.25641 7.8175 117.897436 7.8175"></polygon>
                        <path d="M152.223839,1.77 C141.361053,-0.4425 136.726265,10.325 136.726265,10.325 C136.726265,10.325 130.063756,24.6325 141.795565,26.4025 C153.527374,28.1725 158.306999,15.93 158.306999,15.93 C158.306999,15.93 163.086625,3.9825 152.223839,1.77 L152.223839,1.77 L152.223839,1.77 Z M151.209979,14.3075 C151.209979,14.3075 149.037422,19.3225 144.692308,18.88 C140.347193,18.4375 143.099099,12.8325 143.099099,12.8325 C143.099099,12.8325 145.561331,7.5225 149.327096,8.555 C153.092862,9.5875 151.209979,14.3075 151.209979,14.3075 L151.209979,14.3075 Z" id="Shape" fill="#009EE2"></path>
                    </g>
                </g>
            </g>
        </g>
    </g>
</svg>