<?xml version="1.0" encoding="UTF-8"?>
<svg width="86px" height="94px" viewBox="0 0 86 94" version="1.1" xmlns="http://www.w3.org/2000/svg" xmlns:xlink="http://www.w3.org/1999/xlink">
    <!-- Generator: Sketch 43.2 (39069) - http://www.bohemiancoding.com/sketch -->
    <title>money</title>
    <desc>Created with Sketch.</desc>
    <defs></defs>
    <g id="Page-1" stroke="none" stroke-width="1" fill="none" fill-rule="evenodd">
        <g id="Desktop-HD" transform="translate(-677.000000, -719.000000)">
            <g id="тригеры" transform="translate(0.000000, 619.000000)">
                <g id="2" transform="translate(570.000000, 100.000000)">
                    <g id="money" transform="translate(107.000000, 0.000000)">
                        <path d="M35.2130244,1.84696252 C39.5136523,-0.635826163 46.4824468,-0.638078203 50.7869756,1.84696252 L78.2130244,17.6802514 C82.5136523,20.1630401 86,26.1966297 86,31.1667111 L86,62.8332889 C86,67.7988662 82.5175532,73.8347079 78.2130244,76.3197486 L50.7869756,92.1530375 C46.4863477,94.6358262 39.5175532,94.6380782 35.2130244,92.1530375 L7.78697561,76.3197486 C3.48634773,73.8369599 2.11027136e-14,67.8033703 1.8354796e-14,62.8332889 L8.46603307e-16,31.1667111 C-1.89882394e-15,26.2011338 3.4824468,20.1652921 7.78697561,17.6802514 L35.2130244,1.84696252 Z" id="Polygon" fill="#FFFFFF"></path>
                        <path d="M67,45.0444974 L65.7748324,45.0444974 L65.7748324,35.8996814 L60.1798486,35.8996814 L47.704173,23 L40.1502703,30.8107424 L35.7121297,26.2213433 L26.3518703,35.8998603 L19,35.8998603 L19,65.4963095 C19,68.5359138 21.4653527,71 24.5032136,71 L60.2716188,71 C63.3109598,71 65.7748324,68.5428819 65.7748324,65.5057703 L65.7748324,56.893768 L67,56.893768 L67,45.0444974 Z M56.510573,35.8998603 L38.897773,35.8998603 L47.704173,26.7940345 L56.510573,35.8998603 Z M35.7121297,30.0153777 L38.3158919,32.7076702 L35.2284973,35.8998603 L30.0211459,35.8998603 L35.7121297,30.0153777 Z M24.5853315,68.3171868 C22.9335931,68.3171868 21.5945946,66.9817914 21.5945946,65.3162307 L21.5945946,38.5826735 L63.1802378,38.5826735 L63.1802378,45.0446763 L46.2432432,45.0446763 L46.2432432,56.893768 L63.1802378,56.893768 L63.1802378,65.315818 C63.1802378,66.9734282 61.8437087,68.3171868 60.1895009,68.3171868 L24.5853315,68.3171868 Z M64.4054054,54.210776 L48.8378378,54.210776 L48.8378378,47.7273107 L64.4054054,47.7273107 L64.4054054,54.210776 Z M50.7116541,49.6276367 L50.7116541,52.3104499 L54.3152,52.3104499 L54.3152,49.6276367 L50.7116541,49.6276367 Z" fill="#5599EE" fill-rule="nonzero"></path>
                    </g>
                </g>
            </g>
        </g>
    </g>
</svg>