<?xml version="1.0" encoding="UTF-8"?>
<svg width="190px" height="118px" viewBox="0 0 190 118" version="1.1" xmlns="http://www.w3.org/2000/svg" xmlns:xlink="http://www.w3.org/1999/xlink">
    <!-- Generator: Sketch 43.2 (39069) - http://www.bohemiancoding.com/sketch -->
    <title>OMVL</title>
    <desc>Created with Sketch.</desc>
    <defs></defs>
    <g id="Page-1" stroke="none" stroke-width="1" fill="none" fill-rule="evenodd">
        <g id="Desktop-HD" transform="translate(-750.000000, -1044.000000)" fill-rule="nonzero">
            <g id="логотипы" transform="translate(0.000000, 964.000000)">
                <g id="OMVL" transform="translate(750.000000, 80.000000)">
                    <rect id="1" fill="#FFFFFF" x="0" y="0" width="190" height="118"></rect>
                    <g id="2" transform="translate(14.615385, 33.925000)" fill="#0081C4">
                        <path d="M18.8538462,0.295 L14.1769231,0.295 C6.28461538,0.295 0,6.785 0,14.6025 L0,35.4 C0,43.365 6.43076923,49.7075 14.1769231,49.7075 L18.8538462,49.7075 C26.7461538,49.7075 33.0307692,43.2175 33.0307692,35.4 L33.0307692,14.6025 C33.0307692,6.785 26.7461538,0.295 18.8538462,0.295 Z M23.0923077,37.0225 C23.0923077,40.71 20.1692308,43.66 16.5153846,43.66 C12.8615385,43.66 9.93846154,40.71 9.93846154,37.0225 L9.93846154,13.1275 C9.93846154,9.44 12.8615385,6.49 16.5153846,6.49 C20.1692308,6.49 23.0923077,9.44 23.0923077,13.1275 L23.0923077,37.0225 Z" id="Shape"></path>
                        <polygon id="Shape" points="120.138462 0.295 111.807692 34.6625 103.476923 0.295 93.6846154 0.295 105.669231 49.855 108.153846 49.855 115.461538 49.855 117.8 49.855 129.930769 0.295"></polygon>
                        <polygon id="Shape" points="81.9923077 0.295 79.2153846 0.295 73.3692308 0.295 65.0384615 34.6625 56.7076923 0.295 50.8615385 0.295 48.0846154 0.295 41.0692308 0.295 41.0692308 49.855 50.8615385 49.855 50.8615385 11.3575 60.2153846 49.855 61.3846154 49.855 68.6923077 49.855 70.0076923 49.855 79.2153846 11.6525 79.2153846 49.855 89.0076923 49.855 89.0076923 0.295"></polygon>
                        <polygon id="Shape" points="145.423077 41.595 145.423077 0.295 135.630769 0.295 135.630769 49.855 138.553846 49.855 145.423077 49.855 160.769231 49.855 160.769231 41.595"></polygon>
                    </g>
                </g>
            </g>
        </g>
    </g>
</svg>