<?xml version="1.0" encoding="UTF-8"?>
<svg width="190px" height="118px" viewBox="0 0 190 118" version="1.1" xmlns="http://www.w3.org/2000/svg" xmlns:xlink="http://www.w3.org/1999/xlink">
    <!-- Generator: Sketch 43.2 (39069) - http://www.bohemiancoding.com/sketch -->
    <title>tamona</title>
    <desc>Created with Sketch.</desc>
    <defs>
        <polygon id="path-1" points="18.8499661 0.191704396 18.8499661 19.4430453 0.0244313524 19.4430453 0.0244313524 0.191704396 18.8499661 0.191704396"></polygon>
        <polygon id="path-3" points="0.129143086 0.16704581 19.8270567 0.16704581 19.8270567 13.0232325 0.129143086 13.0232325 0.129143086 0.16704581"></polygon>
    </defs>
    <g id="Page-1" stroke="none" stroke-width="1" fill="none" fill-rule="evenodd">
        <g id="Desktop-HD" transform="translate(-250.000000, -1044.000000)">
            <g id="логотипы" transform="translate(0.000000, 964.000000)">
                <g id="tamona" transform="translate(250.000000, 80.000000)">
                    <rect id="1" fill="#FFFFFF" fill-rule="nonzero" x="0" y="0" width="190" height="118"></rect>
                    <g id="2" transform="translate(14.615385, 38.350000)">
                        <path d="M151.844587,39.7847515 C151.124735,39.7847515 150.40465,39.7856744 149.684797,39.7840593 C149.532342,39.7838285 149.379186,39.7801369 149.22743,39.7672163 C149.130455,39.7591408 149.032781,39.7397598 148.940002,39.7113805 C148.550237,39.592095 148.360717,39.3505246 148.361416,38.9488302 C148.361649,38.7665565 148.382862,38.5808218 148.423657,38.4031626 C148.51527,38.0037755 148.626465,37.6085414 148.726471,37.2110001 C148.743721,37.1431665 148.7654,37.082947 148.84326,37.0760252 C148.929046,37.0681805 149.01926,37.0564135 149.071944,37.1544721 C149.112739,37.2306118 149.154466,37.3072129 149.204818,37.3773537 C149.37872,37.6203084 149.612299,37.7619744 149.918376,37.7746643 C149.951012,37.7760487 149.983648,37.7788174 150.016284,37.7785866 C150.95433,37.7781252 151.892609,37.7790481 152.830654,37.774895 C153.09244,37.7737414 153.352594,37.7492844 153.608086,37.6828353 C154.014401,37.5773934 154.30416,37.3390531 154.47713,36.9599699 C154.567578,36.761776 154.625856,36.5550453 154.655461,36.3397777 C154.706979,35.9694621 154.592055,35.6584431 154.311853,35.409028 C154.147742,35.2627475 153.954724,35.1635353 153.750284,35.0839347 C153.263778,34.894047 152.777738,34.7030056 152.292164,34.5112721 C151.977928,34.3873721 151.668587,34.2530894 151.378828,34.0788911 C151.267167,34.0117498 151.157138,33.9411475 151.050139,33.8670844 C150.389497,33.4090928 150.123982,32.7669816 150.188321,31.9885112 C150.227484,31.5148302 150.321895,31.0483017 150.496962,30.6023079 C150.551977,30.4617956 150.612353,30.3226677 150.680422,30.1879235 C151.162732,29.2341012 151.95788,28.7140442 153.009452,28.5573811 C153.30061,28.5140045 153.594332,28.4983151 153.889686,28.4990073 C155.165978,28.5026989 156.442271,28.5006224 157.718563,28.5006224 C157.805747,28.5006224 157.893165,28.4999302 157.980116,28.5036218 C158.067067,28.5073135 158.096439,28.5442297 158.074293,28.6293677 C157.963099,29.0573649 157.853536,29.4860542 157.735114,29.9122056 C157.633244,30.2790604 157.376354,30.4666408 156.998711,30.4954816 C156.868401,30.5056336 156.737158,30.5065565 156.606382,30.5067872 C155.831982,30.5077101 155.057348,30.5090945 154.282947,30.506095 C154.085267,30.5051721 153.889453,30.5180928 153.699,30.5665453 C153.267974,30.6768325 152.999428,30.9458593 152.915741,31.383547 C152.89546,31.4889889 152.872382,31.5974302 152.876578,31.7035643 C152.884737,31.9070649 152.970522,32.0766487 153.144657,32.1977799 C153.297812,32.3043755 153.464022,32.3825917 153.637691,32.4483487 C154.25847,32.6836894 154.878317,32.9204146 155.499096,33.1555246 C155.80494,33.2715799 156.10449,33.4003252 156.385391,33.5682939 C156.648342,33.7254185 156.890314,33.9086151 157.093821,34.1377263 C157.556317,34.658014 157.724158,35.2650548 157.601308,35.9424671 C157.481254,36.6021135 157.279845,37.240533 157.026685,37.8623403 C156.973768,37.9922392 156.911527,38.1184464 156.848819,38.2441922 C156.443203,39.0593481 155.774403,39.5244922 154.88228,39.6956911 C154.505337,39.7681392 154.12443,39.7831364 153.742592,39.78429 C153.109923,39.7859051 152.477255,39.7847515 151.844587,39.7847515" id="Fill-1" fill="#E31E24"></path>
                        <path d="M147.838264,28.5296708 C147.855048,28.6332669 147.816119,28.7248653 147.792574,28.816925 C147.713083,29.1307127 147.627997,29.4428854 147.544542,29.7555194 C147.527758,29.8180463 147.508876,29.8801116 147.489994,29.942177 C147.391387,30.2679625 147.161771,30.4433144 146.829585,30.4878446 C146.689718,30.5065334 146.546819,30.506072 146.405087,30.5065334 C145.707147,30.5081485 145.008974,30.507687 144.311035,30.5072256 C144.004258,30.5072256 143.70261,30.5455261 143.405392,30.6212044 C142.981126,30.729415 142.625862,30.9474513 142.334705,31.2709295 C142.08574,31.5475703 141.894821,31.8608965 141.735605,32.1936038 C141.535128,32.6137563 141.377543,33.0500597 141.245835,33.4958228 C141.013188,34.2832915 140.813877,35.0781435 140.710608,35.8935301 C140.668181,36.2271602 140.659556,36.5600982 140.741845,36.8909597 C140.83509,37.2651977 141.054682,37.5229189 141.427663,37.6505105 C141.718821,37.7501842 142.019303,37.8080965 142.324914,37.8106345 C143.164586,37.8170949 144.004258,37.813634 144.843931,37.8057893 C145.028323,37.8039435 145.213647,37.7753334 145.395942,37.7446468 C145.660292,37.7003474 145.89084,37.5789854 146.089452,37.4022491 C146.173606,37.3274937 146.256827,37.2728116 146.37758,37.279272 C146.503461,37.2857323 146.538194,37.3131887 146.506258,37.4336278 C146.401357,37.8297848 146.301119,38.2275569 146.181066,38.6193301 C145.990845,39.2406759 145.563317,39.6144524 144.927618,39.7711155 C144.436449,39.8920161 143.936189,39.9231641 143.435463,39.9347004 C142.792305,39.9499284 142.148447,39.9496977 141.505056,39.9363155 C140.948616,39.9250099 140.394973,39.8714815 139.860212,39.7014362 C139.73573,39.661982 139.611714,39.6204513 139.491195,39.5710759 C138.601636,39.2072206 138.042166,38.5572647 137.81185,37.6366669 C137.682473,37.1200708 137.651935,36.5937842 137.703919,36.0617295 C137.839824,34.6639898 138.213037,33.3285463 138.776471,32.0438625 C139.103994,31.297463 139.5208,30.6018234 140.07724,29.9980127 C140.749071,29.268687 141.554709,28.7603971 142.551966,28.5864295 C142.831235,28.5377463 143.112136,28.5008301 143.396766,28.5008301 C144.803835,28.5008301 146.210671,28.5003686 147.61774,28.5012915 C147.691636,28.5012915 147.76903,28.4860636 147.838264,28.5296708" id="Fill-3" fill="#E31E24"></path>
                        <path d="M133.307878,39.7838978 C132.980588,39.7838978 132.653297,39.7868972 132.326007,39.7827441 C132.140915,39.7804369 131.95629,39.7709771 131.778891,39.703605 C131.484237,39.5917028 131.318727,39.3870486 131.297513,39.0734916 C131.283527,38.8669916 131.308237,38.6637218 131.359755,38.4639128 C131.575617,37.6282223 131.791479,36.7923011 132.009673,35.9570721 C132.546532,33.9001475 133.08409,31.8434536 133.624212,29.787452 C133.663142,29.6397872 133.686919,29.4921223 133.697643,29.3412274 C133.712329,29.1335737 133.617918,28.9889084 133.43236,28.899848 C133.38364,28.876314 133.330257,28.8617782 133.28107,28.8387056 C133.223025,28.8114799 133.212069,28.7614123 133.226755,28.7035 C133.232116,28.6827346 133.237944,28.6617385 133.244938,28.6414346 C133.287364,28.5205341 133.305314,28.5057676 133.429097,28.5013838 C133.505325,28.4988458 133.581786,28.5006916 133.658247,28.5006916 C134.269002,28.5006916 134.879991,28.502076 135.490979,28.4997687 C135.655557,28.4990765 135.817803,28.5129201 135.977719,28.5502978 C136.383801,28.645357 136.584978,28.9185369 136.54022,29.3336134 C136.521804,29.5045816 136.485205,29.6748575 136.442313,29.8416726 C136.1029,31.1584274 135.760924,32.4742592 135.417549,33.7898603 C135.016828,35.3246514 134.61331,36.8587503 134.211423,38.3933106 C134.162236,38.5815832 134.122607,38.7700866 134.127736,38.9675883 C134.132631,39.1634749 134.219116,39.2952196 134.400012,39.3688212 C134.44034,39.3852028 134.480669,39.4059682 134.522862,39.4131207 C134.666926,39.4378084 134.678581,39.4885682 134.643614,39.6537682 C134.622867,39.7515961 134.590931,39.7785911 134.48603,39.7825134 C134.36621,39.7871279 134.246157,39.7845899 134.126104,39.7848207 C133.853362,39.7850514 133.58062,39.7848207 133.307878,39.7848207 L133.307878,39.7838978 Z" id="Fill-5" fill="#E31E24"></path>
                        <path d="M136.050124,27.3681487 C135.713276,27.3586889 135.376428,27.3508442 135.039813,27.3386158 C134.930949,27.3346934 134.82465,27.3136973 134.724411,27.2654755 C134.552374,27.1826448 134.449804,27.0552839 134.457497,26.8603202 C134.461693,26.7532632 134.465656,26.6432068 134.492464,26.5405336 C134.585243,26.1865996 134.689911,25.8358956 134.785254,25.4828845 C134.808798,25.3954392 134.857752,25.3557543 134.944703,25.3555236 C135.140518,25.3546007 135.336332,25.3539085 135.532147,25.3539085 C135.880184,25.3536778 136.228222,25.3506783 136.576259,25.3552928 C136.728016,25.3571387 136.882336,25.3603688 137.030829,25.3878253 C137.369775,25.4503521 137.511508,25.652699 137.459524,25.990713 C137.43831,26.1282258 137.398448,26.2634314 137.362316,26.3984063 C137.292615,26.658204 137.221049,26.9175403 137.147386,27.1761845 C137.097033,27.3526901 137.092837,27.3563817 136.898654,27.3582275 C136.615888,27.3609962 136.333123,27.3589197 136.050357,27.3589197 C136.050357,27.3621498 136.050124,27.3651493 136.050124,27.3681487" id="Fill-7" fill="#E31E24"></path>
                        <path d="M120.573486,39.7841977 C120.257152,39.7841977 119.940585,39.7874279 119.624484,39.7828134 C119.450349,39.7805061 119.276213,39.7765837 119.107207,39.7202865 C118.750078,39.6007703 118.573378,39.3718899 118.563821,38.9985748 C118.558459,38.7805385 118.608112,38.569424 118.662427,38.3606167 C119.024918,36.9608005 119.388341,35.561215 119.753861,34.1623217 C120.130339,32.7214363 120.510312,31.2814737 120.886323,29.8405882 C120.924321,29.6947692 120.951129,29.5454893 120.97444,29.3964402 C121.010806,29.1638681 120.913131,28.9984374 120.699833,28.8989944 C120.650646,28.8761525 120.596797,28.8620782 120.549242,28.8366983 C120.511245,28.8163944 120.479542,28.7863999 120.497025,28.7331022 C120.514042,28.6818809 120.521269,28.6269681 120.543415,28.5785156 C120.560898,28.5399843 120.593767,28.5069904 120.642954,28.5051446 C120.708225,28.5026066 120.77373,28.5007608 120.839002,28.5007608 C121.482626,28.5005301 122.126483,28.5023759 122.770108,28.4996072 C122.945875,28.4986843 123.119078,28.5146044 123.288784,28.5568273 C123.645913,28.6458877 123.822845,28.8724608 123.809092,29.2372391 C123.803264,29.3872111 123.768297,29.5360296 123.747783,29.6853094 C123.738458,29.753143 123.813054,29.808748 123.875762,29.7764463 C123.922617,29.7522201 123.96924,29.721072 124.005372,29.6834636 C124.162724,29.5184944 124.324737,29.3572167 124.469267,29.1818647 C124.826163,28.7494837 125.301946,28.5242949 125.837872,28.4223139 C126.450493,28.3057972 127.072904,28.289877 127.695548,28.3288698 C128.043818,28.350558 128.391623,28.3819368 128.728004,28.4834564 C128.85272,28.5210647 128.978134,28.5593653 129.098887,28.6078178 C129.891937,28.9243742 130.288695,29.5187251 130.331121,30.3534927 C130.354432,30.8103307 130.282167,31.2588625 130.169108,31.6990882 C129.847412,32.9533161 129.516858,34.2054675 129.189335,35.4580804 C128.927316,36.4603553 128.6625,37.4619379 128.403745,38.464905 C128.366213,38.6102625 128.344534,38.7620804 128.336375,38.9120525 C128.32402,39.1388564 128.41237,39.3116703 128.649445,39.382734 C128.71192,39.4014228 128.773695,39.424034 128.832905,39.451029 C128.862044,39.4644111 128.880227,39.4946363 128.873001,39.5308603 C128.862277,39.5834659 128.849689,39.6360715 128.8385,39.688677 C128.825446,39.7505117 128.784884,39.7791217 128.723808,39.7809675 C128.647581,39.7832748 128.57112,39.7846592 128.494892,39.7846592 C127.894859,39.7848899 127.294827,39.786505 126.694795,39.7837363 C126.531383,39.7828134 126.366339,39.7811983 126.205258,39.7576642 C125.720383,39.6875234 125.477713,39.3919631 125.496595,38.9099759 C125.504288,38.7145508 125.554174,38.5265089 125.603361,38.338467 C126.102222,36.4278228 126.601083,34.5171787 127.10111,32.6067653 C127.185963,32.2825949 127.24937,31.9542715 127.299956,31.6236407 C127.308114,31.570343 127.313243,31.516353 127.314875,31.4625938 C127.330027,30.943229 127.113465,30.6386703 126.603414,30.5272296 C125.989862,30.3934083 125.37118,30.376796 124.757394,30.544534 C124.218904,30.6917374 123.800933,31.0036793 123.490893,31.4595944 C123.294612,31.7484636 123.154744,32.0640972 123.065229,32.400496 C122.837477,33.2555675 122.611591,34.1111005 122.386171,34.9668642 C122.08126,36.12511 121.776348,37.2833558 121.475399,38.4427553 C121.437868,38.5883435 121.409662,38.7392385 121.403368,38.8889798 C121.393577,39.1169374 121.428311,39.285829 121.724597,39.3841184 C121.776115,39.4011921 121.826934,39.4210346 121.878451,39.4385698 C121.944655,39.4611809 121.950017,39.5112485 121.938361,39.5680072 C121.931834,39.5996167 121.918081,39.6298418 121.912719,39.6616821 C121.8971,39.7528189 121.839522,39.7851206 121.751638,39.7844284 C121.598949,39.7830441 121.44626,39.7846592 121.293571,39.7848899 L120.573486,39.7848899 L120.573486,39.7841977 Z" id="Fill-9" fill="#E31E24"></path>
                        <path d="M114.460593,33.760858 C114.281096,34.4618044 114.069896,35.1530603 113.785498,35.8205513 C113.658219,36.1193418 113.507161,36.4052117 113.336057,36.6820832 C112.919251,37.3571882 112.310594,37.7261195 111.520807,37.8013363 C111.173236,37.8345608 110.825432,37.8336379 110.47856,37.7646508 C109.733998,37.6165245 109.468949,37.1901424 109.395984,36.5681044 C109.363349,36.2886949 109.36871,36.0055938 109.407407,35.7273379 C109.562194,34.6126994 109.823746,33.5234407 110.233325,32.4715597 C110.339392,32.1993027 110.466438,31.9374284 110.608637,31.6817837 C111.004696,30.970224 111.592839,30.5438418 112.421555,30.4621647 C112.825073,30.4222491 113.226261,30.4111742 113.625816,30.4960815 C114.246595,30.6285184 114.61468,31.0221374 114.691374,31.6490206 C114.712355,31.8199888 114.713753,31.9932642 114.724243,32.1656167 C114.707226,32.7096692 114.594633,33.2373402 114.460593,33.760858 M117.568919,31.0807418 C117.326015,29.8597385 116.632038,29.0148189 115.427545,28.6057413 C115.023327,28.4684592 114.606988,28.3950882 114.182256,28.3517117 C113.582224,28.2905692 112.984289,28.3159491 112.38519,28.3549418 C111.828749,28.3911659 111.280235,28.4746888 110.743376,28.6244301 C109.651243,28.9296809 108.782432,29.5424899 108.151628,30.4808536 C107.891008,30.8684737 107.672115,31.2782435 107.495649,31.7090094 C106.985598,32.9542391 106.625439,34.2409994 106.467155,35.576443 C106.397221,36.16641 106.396755,36.7612223 106.512146,37.3504972 C106.70866,38.3546178 107.26207,39.081867 108.214336,39.4960206 C108.403157,39.5781592 108.600137,39.6450698 108.798283,39.7027513 C109.485033,39.902791 110.192065,39.9387843 110.944553,39.9429374 C111.196781,39.9288631 111.490736,39.9113279 111.784691,39.8963307 C112.265137,39.8718737 112.739754,39.8019636 113.20598,39.6889078 C114.251257,39.4355703 115.100254,38.8850575 115.736885,38.0207569 C116.052986,37.5911446 116.311975,37.1292307 116.517347,36.6396296 C117.02833,35.4202413 117.42975,34.1692435 117.597592,32.8536424 C117.672887,32.2613681 117.685708,31.6681709 117.568919,31.0807418" id="Fill-11" fill="#E31E24"></path>
                        <path d="M100.331114,39.4718405 C100.315962,39.5528254 100.302441,39.605431 100.297079,39.6587288 C100.287522,39.7551723 100.226213,39.7830902 100.140661,39.7837824 C100.086112,39.7840131 100.031564,39.7847053 99.9770156,39.7847053 C99.3445806,39.784936 98.7121456,39.7865511 98.0797106,39.7835517 C97.927488,39.7826288 97.7720017,39.7819366 97.6235089,39.7533265 C97.1232489,39.6578059 96.9299984,39.3516321 96.9514447,38.9427852 C96.9575057,38.8246534 96.968462,38.7053679 96.9948037,38.5904662 C97.0717309,38.2540673 97.1533204,37.9188221 97.2405046,37.5849612 C97.917231,34.9969047 98.5958223,32.4095405 99.273015,29.8214841 C99.3056508,29.6964304 99.3361885,29.5699925 99.3553038,29.4424008 C99.397031,29.1669137 99.3149753,29.0153265 99.0657777,28.8895807 C99.0273141,28.869969 98.9839551,28.859817 98.944326,28.8425126 C98.8869802,28.8173634 98.8634358,28.775602 98.8851153,28.7135366 C98.8995683,28.672698 98.9107577,28.6309366 98.9245114,28.590098 C98.9440928,28.531955 98.9874518,28.5051908 99.0473618,28.5035757 C99.1126334,28.5014992 99.1781381,28.500807 99.2436428,28.500807 C99.8760778,28.5005763 100.508513,28.5024221 101.140948,28.4994226 C101.316715,28.4987304 101.489918,28.5137277 101.659624,28.5552584 C102.01582,28.6420115 102.191587,28.8630472 102.197881,29.2280561 C102.199979,29.3574936 102.192753,29.4864696 102.161749,29.6138304 C102.155221,29.640364 102.16338,29.6855863 102.182029,29.6996606 C102.216297,29.7252712 102.268747,29.7308087 102.305113,29.7033522 C102.356165,29.6645902 102.402787,29.618445 102.444048,29.569531 C102.611889,29.3708757 102.782528,29.1740662 102.941977,28.9689506 C103.240595,28.5847913 103.639217,28.3972109 104.11873,28.3542958 C104.444855,28.3252243 104.77098,28.3083813 105.098504,28.3106885 C105.589206,28.3146109 106.079908,28.3109193 106.570611,28.3132265 C106.697657,28.313688 106.727263,28.3519885 106.696025,28.4728891 C106.5825,28.911269 106.469207,29.3498796 106.349154,29.7868751 C106.232597,30.2114115 105.936777,30.4324472 105.504819,30.4852835 C105.407844,30.4970506 105.308771,30.4947433 105.210631,30.4947433 C104.66538,30.4958969 104.120129,30.4961277 103.575111,30.4956662 C103.290015,30.4954355 103.010979,30.5328131 102.736139,30.6103372 C102.290427,30.7358522 101.969897,31.0071863 101.75893,31.411188 C101.663353,31.5941539 101.595285,31.7877332 101.543534,31.9861578 C100.978468,34.146217 100.414102,36.306507 99.8527665,38.4674891 C99.8150022,38.6128466 99.789826,38.7642031 99.7837651,38.9139444 C99.7730419,39.1707427 99.8564963,39.2831064 100.098934,39.3834723 C100.167935,39.4120824 100.238801,39.4367701 100.331114,39.4718405" id="Fill-13" fill="#E31E24"></path>
                        <path d="M90.2883587,30.5050798 L89.433301,30.5050798 C89.433301,30.4393228 89.4232771,30.3947927 89.4349327,30.3567228 C89.5507898,29.9746402 89.6717753,29.5941726 89.7878655,29.2120899 C89.815839,29.1197994 89.8638603,29.0722698 89.9661968,29.0549653 C90.2566553,29.0058206 90.5401205,28.9280659 90.8114637,28.8110877 C91.5068392,28.511605 92.068641,28.0416156 92.5500189,27.4710296 C92.7952536,27.1800837 93.004822,26.8644502 93.1696327,26.5218217 C93.2216168,26.4136111 93.2903851,26.3547759 93.4202289,26.3630821 C93.6673285,26.3787715 93.9169923,26.3443932 94.1846058,26.385924 C94.0307513,27.0937921 93.8132571,27.7702815 93.6566053,28.4719201 C93.928881,28.5272944 94.1792442,28.4931469 94.4272762,28.4991458 C94.6781055,28.5053754 94.9289349,28.5005301 95.1797643,28.5005301 L95.8996165,28.5005301 L96.6392834,28.5005301 C96.6873046,28.6126631 96.6374185,28.6934173 96.6176039,28.7734793 C96.5315853,29.1186458 96.4362422,29.4619664 96.3439295,29.8057485 C96.3327401,29.8472793 96.3178209,29.8881178 96.3061652,29.9296485 C96.2101228,30.2727385 95.9711822,30.4483212 95.6247766,30.4907748 C95.5061222,30.5055413 95.3853697,30.505772 95.2655498,30.5064642 C94.9056236,30.5085407 94.5456975,30.5087715 94.1857713,30.5066949 C94.03215,30.505772 93.8820254,30.5265374 93.7314345,30.5539938 C93.4202289,30.6105217 93.195042,30.7794134 93.0456167,31.0525932 C92.9568007,31.2150245 92.8947927,31.3878385 92.8481702,31.5654977 C92.4122493,33.2241888 91.9779601,34.883572 91.5450697,36.543186 C91.5149981,36.6576262 91.4942511,36.7755273 91.4800312,36.892967 C91.4303782,37.2992759 91.5998512,37.5399234 92.0005721,37.6165245 C92.1817007,37.6511335 92.3679578,37.6714374 92.55235,37.6755904 C92.944912,37.684358 93.3374739,37.6804357 93.7302689,37.6774363 C93.8386664,37.6765134 93.9470638,37.6596703 94.0556944,37.6509027 C94.375292,37.6248307 94.6436048,37.4965469 94.8482779,37.250362 C94.9161137,37.1691463 94.9928078,37.128077 95.1009721,37.1303843 C95.226853,37.133153 95.263918,37.1673005 95.2333802,37.2831251 C95.1261483,37.6901262 95.0212476,38.0975888 94.9060898,38.5020519 C94.8590011,38.6674826 94.7923308,38.8280681 94.7263599,38.9874999 C94.5641134,39.3795039 94.2575701,39.6012318 93.8475247,39.6866005 C93.6451828,39.7285927 93.4407429,39.7643553 93.2321069,39.7664318 C92.7306813,39.7715078 92.2290226,39.781429 91.7273639,39.7841977 C91.1275647,39.7871972 90.5277655,39.786505 89.9279663,39.783967 C89.6445011,39.7828134 89.3615022,39.7740458 89.0847973,39.6979061 C88.5346512,39.5463189 88.2658721,39.2099201 88.2476893,38.6448715 C88.2353343,38.262558 88.3199543,37.8947804 88.4176285,37.5290793 C88.9160237,35.6636575 89.4155844,33.7984664 89.914912,31.9330446 C90.0235425,31.526505 90.1326393,31.120196 90.2410368,30.7136564 C90.2545573,30.6628966 90.264348,30.6112139 90.2883587,30.5050798" id="Fill-15" fill="#E31E24"></path>
                        <path d="M86.1869723,37.312312 C86.0608583,37.7963756 85.958988,38.2705181 85.7944104,38.7273561 C85.5997612,39.2665634 85.2069661,39.598117 84.6558875,39.7508578 C84.4141495,39.8179991 84.1672831,39.8662209 83.9171531,39.8851404 C83.5040772,39.9165192 83.0907683,39.9476673 82.6755944,39.9425913 C82.2065715,39.9370539 81.7373154,39.9467444 81.2682925,39.9393611 C80.7552112,39.9312857 80.244228,39.8927544 79.7449004,39.7651628 C79.59734,39.7273237 79.450479,39.6855622 79.3073477,39.634341 C78.1539057,39.2224946 77.5466469,38.3884192 77.3778732,37.2057164 C77.2834625,36.5437628 77.3450043,35.8898846 77.4596958,35.2403902 C77.6666999,34.0669164 78.0044804,32.9298974 78.5149974,31.8487142 C78.8348281,31.1713019 79.2255251,30.5347282 79.7409375,29.9828309 C80.3374731,29.3441807 81.0384433,28.8658851 81.9035248,28.6513097 C82.2643834,28.5617879 82.6310698,28.5038756 83.0028847,28.502722 C84.4425893,28.4983382 85.882527,28.5006455 87.3224647,28.5011069 C87.3760806,28.5013377 87.4294634,28.5096438 87.4786502,28.5140276 C87.5213099,28.6127784 87.4725893,28.6939941 87.4530078,28.7738254 C87.3676885,29.1194533 87.273511,29.4630047 87.1818977,29.8070175 C87.1709414,29.848779 87.1553228,29.8891561 87.1432009,29.9306868 C87.0445942,30.2721617 86.8054205,30.4493594 86.459248,30.4904287 C86.3191472,30.507041 86.1762491,30.5063488 86.0345165,30.5065796 C85.3473,30.5081946 84.6600835,30.5077332 83.972867,30.507041 C83.6549012,30.5068103 83.3420638,30.5444187 83.0350543,30.6263265 C82.6236102,30.7359215 82.2769715,30.9484203 81.9923408,31.2626695 C81.7352174,31.5469242 81.5398689,31.869941 81.3773893,32.2134924 C81.1128063,32.7720807 80.9258498,33.3574332 80.7661675,33.9527069 C80.5924985,34.5996634 80.438411,35.2500807 80.3579871,35.9157259 C80.3204559,36.2278985 80.3157936,36.5384561 80.3829301,36.8497058 C80.4733779,37.2687047 80.7188457,37.5428075 81.1298235,37.6703991 C81.4121231,37.7580751 81.7032809,37.8102192 81.9984017,37.812065 C82.8163945,37.817141 83.6343873,37.8155259 84.4526132,37.8076812 C84.6477286,37.8058354 84.8440095,37.7765332 85.0374931,37.7458466 C85.3023093,37.7040851 85.5391519,37.5891835 85.7314699,37.4064483 C85.8566515,37.2873935 85.9860291,37.2548611 86.1869723,37.312312" id="Fill-17" fill="#E31E24"></path>
                        <path d="M73.634618,31.7273983 C73.6103743,31.9634313 73.5800696,32.1987721 73.5180616,32.4290369 C73.4775,32.5797011 73.4623477,32.5953905 73.2900773,32.5963134 C72.7450596,32.5986207 72.1998088,32.5972363 71.6547911,32.597467 L71.3930054,32.597467 C70.815352,32.597467 70.2374654,32.5976978 69.6595788,32.5970056 C69.5726277,32.5967749 69.4854435,32.5942369 69.3989587,32.5859307 C69.3672553,32.5829313 69.3441772,32.5540905 69.3462752,32.517405 C69.3476739,32.4964089 69.3514037,32.4747207 69.358397,32.4548782 C69.4849773,32.097714 69.6402304,31.7553162 69.8456028,31.4339145 C70.1714944,30.9242402 70.6428485,30.6531369 71.234955,30.5659223 C71.7126031,30.4955508 72.189785,30.4847067 72.6681324,30.5587698 C72.8420345,30.5855341 73.0098757,30.6286799 73.16746,30.7050503 C73.3851873,30.8109536 73.5241225,30.9821525 73.5879954,31.2142631 C73.6343849,31.382924 73.6523346,31.5543536 73.634618,31.7273983 M76.4051635,30.8058777 C76.2928031,30.1584598 75.9797326,29.6351726 75.4365798,29.2517056 C75.1591756,29.055819 74.8544972,28.9148453 74.5314029,28.8100955 C74.0311429,28.647895 73.5159636,28.5747547 72.9921592,28.533224 C72.1056312,28.4628525 71.2274954,28.5096899 70.3568191,28.6834268 C68.9112867,28.9720654 67.7972407,29.7332313 67.0328639,30.9872285 C66.8638571,31.2647922 66.7088371,31.5495084 66.5789933,31.8466838 C65.995512,33.183281 65.6260282,34.575714 65.4905897,36.0255978 C65.4393049,36.5758799 65.4642479,37.126162 65.600852,37.6658307 C65.8274377,38.5610486 66.3528739,39.2073128 67.2254151,39.5626313 C67.6629678,39.7405212 68.1212675,39.8390413 68.5884255,39.8812642 C69.719955,39.983476 70.8542818,39.9440218 71.9879093,39.925333 C72.1513213,39.922795 72.3145003,39.9061827 72.4774461,39.8918777 C72.8147603,39.8625754 73.1476454,39.8088162 73.4686417,39.6976061 C73.8791533,39.5557095 74.1852304,39.2924508 74.3759167,38.9057536 C74.4472492,38.7610883 74.5083247,38.6092704 74.5537817,38.4549145 C74.6479593,38.134205 74.7302481,37.8098039 74.8146349,37.4863257 C74.862423,37.3028983 74.8134694,37.2567531 74.6197526,37.2812101 C74.5367645,37.2918235 74.4824492,37.3405067 74.4255697,37.3903436 C74.1642503,37.6210698 73.8591056,37.7385095 73.5099027,37.775195 C73.2269037,37.8049587 72.9446042,37.8183408 72.6613721,37.819033 C71.8872046,37.8213402 71.113037,37.8204173 70.3388694,37.8199559 C70.2188163,37.8199559 70.0985301,37.8199559 69.9791764,37.8109575 C69.6959444,37.7895 69.4166752,37.7484307 69.1502273,37.6425274 C68.7882032,37.4987849 68.5707089,37.2355263 68.4786294,36.864057 C68.4236148,36.6414061 68.4103273,36.4155251 68.4348042,36.188952 C68.4832916,35.7383436 68.56255,35.2925804 68.6539302,34.8484324 C68.703117,34.6098615 68.7329554,34.5994788 68.9471861,34.6024782 C69.0126908,34.6034011 69.0779624,34.6027089 69.1434671,34.6027089 L71.7606243,34.6027089 C72.5457482,34.6024782 73.330872,34.6040933 74.1159959,34.6015553 C74.3227669,34.6008631 74.5304704,34.5948642 74.7365421,34.5770983 C75.2671068,34.5314145 75.6638648,34.2847682 75.8876531,33.7953978 C75.9550227,33.6481944 76.0209936,33.4998374 76.0746095,33.3475581 C76.2433832,32.867186 76.348284,32.3729704 76.416586,31.8686028 C76.4650735,31.5116693 76.4664721,31.1600425 76.4051635,30.8058777" id="Fill-19" fill="#E31E24"></path>
                        <path d="M63.1805818,25.3540469 C63.4857265,25.3538162 63.7911042,25.3501246 64.0962489,25.355662 C64.2484715,25.3582 64.4034915,25.3623531 64.5515181,25.3930397 C64.9550364,25.4767933 65.1667028,25.7688927 65.1165835,26.1731251 C65.0900087,26.3865469 65.0482815,26.599738 64.9939662,26.8078531 C64.1617536,29.9895682 63.3262773,33.1705911 62.4919667,36.3518447 C62.3005811,37.0818626 62.1131584,37.8130341 61.9182761,38.5423598 C61.8786469,38.6909475 61.8658257,38.8386123 61.8676906,38.9901994 C61.8700218,39.1588603 61.9509119,39.2767615 62.1017359,39.3489788 C62.1504564,39.3722821 62.2038393,39.3863564 62.2530261,39.4091983 C62.3001149,39.4311173 62.3700487,39.4230419 62.3882315,39.4844151 C62.4136408,39.5700145 62.3966235,39.655614 62.3511666,39.7310615 C62.3367136,39.7548263 62.2998817,39.7735151 62.2705095,39.7781296 C62.2173598,39.7868972 62.1621121,39.7845899 62.1075637,39.7845899 C61.442726,39.7848207 60.7776552,39.7855128 60.1125845,39.783667 C60.0039539,39.7834363 59.8950902,39.7735151 59.7862266,39.7656704 C59.6540516,39.7562106 59.5305018,39.7146799 59.4134792,39.6544603 C59.1936539,39.5414045 59.0684723,39.3625916 59.0456272,39.1177911 C59.0262789,38.9119832 59.0421305,38.708252 59.0936485,38.5077508 C59.2843347,37.7664274 59.4722236,37.024181 59.6666397,36.2837804 C60.5046802,33.0923749 61.3448187,29.9016615 62.1830922,26.7102559 C62.2269174,26.5436715 62.2656142,26.3761642 62.2758711,26.2019659 C62.2889254,25.9811609 62.2003426,25.8272665 61.9993994,25.7352067 C61.9600033,25.7172101 61.9185092,25.7031358 61.8777145,25.6886 C61.8164058,25.6669117 61.7963581,25.6212279 61.804284,25.5623927 C61.8247979,25.4098827 61.8802787,25.3561235 62.0359981,25.3549698 C62.4173706,25.3524318 62.7989762,25.3542777 63.1805818,25.3540469" id="Fill-21" fill="#E31E24"></path>
                        <path d="M55.330229,32.4908023 C55.3083164,32.5674034 55.2567985,32.5923218 55.1866315,32.5950906 C55.1106368,32.59809 55.0341758,32.5971671 54.9579479,32.5973978 L53.2247543,32.5973978 L53.2247543,32.5967056 C52.5815962,32.5967056 51.938438,32.5973978 51.2955129,32.5957827 C51.1854837,32.595552 51.1582095,32.5586358 51.1927102,32.4555012 C51.3409699,32.0127375 51.5391158,31.5955844 51.8314392,31.225038 C52.1468408,30.8256509 52.5780995,30.6436079 53.0657714,30.566776 C53.542254,30.4920207 54.0201352,30.484176 54.4984826,30.5584699 C54.6392827,30.5803889 54.7756537,30.6149978 54.9078287,30.6655269 C55.2346528,30.7901191 55.4141496,31.0321509 55.4505152,31.3715492 C55.49131,31.7517861 55.4351298,32.1241783 55.330229,32.4908023 M58.2700144,31.0669906 C58.1975163,30.212842 57.8070524,29.5515805 57.051767,29.1136621 C56.7678356,28.9491542 56.4643227,28.832176 56.1482218,28.7449615 C55.6838611,28.6169084 55.2092435,28.5596883 54.7297305,28.5264637 C53.7765323,28.460476 52.8335911,28.5200034 51.9058022,28.7491146 C50.642564,29.0612872 49.6569631,29.7610799 48.9529625,30.8471084 C48.7643743,31.138285 48.5986311,31.4414593 48.4515369,31.7547855 C48.1566492,32.3825917 47.934959,33.0362392 47.7547628,33.7039609 C47.5239811,34.5597246 47.3332949,35.4228716 47.3134803,36.3141671 C47.304622,36.7248598 47.314879,37.1343989 47.4022963,37.5381699 C47.6169931,38.528447 48.1736665,39.2358537 49.1471455,39.5955559 C49.2590396,39.6370866 49.3732649,39.6735414 49.4881895,39.7065353 C50.101043,39.8825794 50.7318462,39.9273403 51.3645143,39.9379537 C52.0622209,39.9497207 52.7603937,39.9467213 53.4583333,39.9379537 C53.8940211,39.932647 54.3301752,39.9095744 54.7605014,39.8308967 C54.856777,39.8133615 54.9521201,39.7912118 55.0479294,39.7706772 C55.7321155,39.6237045 56.1582456,39.2000911 56.3561584,38.5489816 C56.4783095,38.1468258 56.5757506,37.7375174 56.688111,37.3173649 C56.4920632,37.2497621 56.3610538,37.2836788 56.2372709,37.4020414 C56.0444866,37.5859302 55.8090427,37.699909 55.545159,37.7446699 C55.3628648,37.7753565 55.1775401,37.8046587 54.993381,37.8060431 C53.9464715,37.8134263 52.8997951,37.8155028 51.8528856,37.8118112 C51.5796774,37.8108883 51.3097328,37.7603593 51.0512107,37.6706068 C50.5940765,37.5125593 50.3413823,37.1853894 50.2838034,36.7144772 C50.2644551,36.5548146 50.2672524,36.3909989 50.2730802,36.2297213 C50.2886988,35.7966481 50.3847413,35.375342 50.4649321,34.9512671 C50.5444235,34.5311146 50.5472209,34.6044855 50.9024848,34.6040241 C52.5601498,34.6010246 54.2178148,34.6031012 55.8752467,34.6019475 C56.0715277,34.6017168 56.2678087,34.5941028 56.4638565,34.5860274 C57.0930279,34.5606475 57.5361753,34.2680866 57.7741835,33.6848107 C57.8110153,33.5948274 57.8525094,33.5064593 57.8816485,33.4141688 C57.959275,33.1670609 58.0434287,32.9213375 58.1028725,32.6700766 C58.2275878,32.1435593 58.3161707,31.6112738 58.2700144,31.0669906" id="Fill-23" fill="#E31E24"></path>
                        <path d="M44.6226361,7.41401911 C44.682313,7.18190849 44.7331315,6.97310123 44.7900111,6.76590905 C44.9699741,6.11087721 45.1487716,5.45561464 45.3357281,4.80265933 C45.3800195,4.64830346 45.4464567,4.49856212 45.5159243,4.35274313 C45.6669814,4.03503307 45.9173445,3.81791966 46.2481315,3.69748056 C46.4940655,3.6081895 46.7467598,3.54220179 47.0125084,3.54197106 C47.197833,3.54197106 47.3831577,3.53689508 47.5687155,3.53689508 C51.2439717,3.53643363 54.9192279,3.53666436 58.5947172,3.53643363 C58.9872791,3.53643363 59.3761112,3.49582581 59.7630785,3.43006883 C60.0537701,3.38069341 60.289214,3.23095207 60.5050765,3.0440638 C60.5787401,2.98038335 60.6538024,2.91370346 60.7102157,2.83571799 C60.8256065,2.6767476 60.9789948,2.62967944 61.1657181,2.64790682 C61.2412466,2.65552078 61.318407,2.6504448 61.3932362,2.66198112 C61.4144494,2.66521128 61.4480177,2.71020291 61.444521,2.73073754 C61.4284362,2.82602749 61.4034931,2.9201638 61.3776176,3.01383866 C61.1680492,3.77223587 60.9601126,4.53132525 60.7461151,5.28879955 C60.6666236,5.57051631 60.5572937,5.83954313 60.3537863,6.06219397 C60.1810497,6.25115877 59.9761435,6.38636436 59.7302096,6.46088894 C59.4367206,6.54994927 59.1374037,6.59378726 58.8294618,6.59286436 C57.7496833,6.59009564 56.670138,6.59217218 55.5903596,6.59240291 C55.5141317,6.59240291 55.4376707,6.59124927 55.3614428,6.59263363 C55.1080492,6.5967867 55.1050188,6.59632525 55.0322876,6.85266212 C54.9320491,7.20521184 54.8371722,7.55914592 54.7399641,7.91261855 C54.4455427,8.98318838 54.1504219,10.0537582 53.8566998,11.1245588 C53.60284,12.0497711 53.3510782,12.9754448 53.0972183,13.9006571 C52.809324,14.9506923 52.519798,16.000266 52.2312043,17.0503012 C51.9740809,17.9856655 51.71789,18.9214912 51.4609997,19.8568554 C51.3668221,20.1999454 51.2696141,20.5423431 51.1782339,20.8861253 C51.1145941,21.1253884 51.0558497,21.3621135 51.1218206,21.6168353 C51.1901226,21.8807861 51.3407135,22.0556766 51.5952726,22.1484286 C51.6157866,22.1560426 51.6360674,22.1634258 51.6568144,22.1703476 C51.9148703,22.2552549 51.9153365,22.2552549 51.8416729,22.5196672 C51.8300172,22.5609672 51.813,22.6008828 51.7973814,22.6412599 C51.7759351,22.6968649 51.7337416,22.7273208 51.6740648,22.7298588 C51.5978369,22.7330889 51.5213759,22.7349347 51.445148,22.7349347 C50.2891417,22.7351655 49.1331354,22.7353962 47.9771291,22.7344733 C47.8463528,22.7342426 47.714411,22.7365498 47.5850334,22.7213219 C47.1339601,22.6677934 46.7103942,22.3833079 46.6786909,21.7836504 C46.6614405,21.4599415 46.6854511,21.1440772 46.7763651,20.8247521 C47.1507443,19.5077666 47.5032108,18.185013 47.8670999,16.865028 C48.2221306,15.5764219 48.5822899,14.2889694 48.93802,13.0003632 C49.2364044,11.9196415 49.5308258,10.8379968 49.8282777,9.75704425 C50.0774753,8.85282804 50.3338994,7.95045765 50.5765698,7.04462637 C50.705248,6.56540793 50.7784454,6.59194145 50.2432185,6.59217218 C49.3380415,6.59263363 48.4328646,6.59378726 47.5276876,6.59171073 C47.1675284,6.59078782 46.8090009,6.59886324 46.4528046,6.65815989 C46.1339063,6.71122693 45.8469444,6.8305124 45.6038078,7.04462637 C45.5630131,7.08061966 45.5163905,7.11361352 45.4867852,7.15745151 C45.279781,7.46639397 44.9848934,7.49269676 44.6226361,7.41401911" id="Fill-25" fill="#96A7B1"></path>
                        <path d="M68.9927596,14.6675912 C68.9846007,14.7700336 68.9559278,14.8018739 68.8552231,14.8094878 C68.8009078,14.8134102 68.7463594,14.8122565 68.691811,14.8122565 C67.4271742,14.8122565 66.1627704,14.8129487 64.8981335,14.8108722 C64.8149123,14.8106415 64.7016195,14.8526336 64.6545307,14.7732638 C64.5962525,14.6749744 64.7004539,14.5981426 64.7536036,14.5231565 C65.316571,13.728766 65.8814033,12.9357599 66.4462356,12.1429845 C66.9171234,11.4821845 67.3891768,10.8225381 67.8605308,10.1621996 C68.1246476,9.79234536 68.3873657,9.42179899 68.6533474,9.05355989 C68.6883143,9.00510737 68.7104601,8.93704313 68.7859886,8.92758335 C68.79508,8.94558 68.8109317,8.96242302 68.8113979,8.97972749 C68.8309794,9.57223251 68.8745715,10.1633532 68.875737,10.7570118 C68.8783013,11.8460398 68.9608232,12.9334526 68.9531305,14.0231727 C68.9517318,14.2379789 69.0102431,14.4507085 68.9927596,14.6675912 M99.2349477,22.210494 C99.078529,22.1645794 98.9195461,22.1255867 98.7668572,22.0699817 C98.5260517,21.9825364 98.4052993,21.8009549 98.394343,21.5499247 C98.3873496,21.3881856 98.3868833,21.2262158 98.3868833,21.0642459 C98.3864171,15.8382962 98.3864171,10.6123465 98.3864171,5.38616603 C98.3864171,5.28903028 98.3885151,5.19189453 98.3857178,5.09475877 C98.3791906,4.86726268 98.3390952,4.64484257 98.2691614,4.42819061 C98.1374527,4.01865151 97.8644776,3.74385654 97.4528004,3.61003531 C97.1928797,3.52535877 96.9245668,3.48659676 96.6494937,3.48705821 C95.1985998,3.48890402 93.7477058,3.48936547 92.2965787,3.48682749 C91.8788406,3.48590458 91.9704539,3.51289955 91.8751108,3.83153251 C91.8308193,3.9798895 91.8536644,4.01288335 92.0135798,4.0624895 C92.1706978,4.11140346 92.3238529,4.16631631 92.4555616,4.26622078 C92.6721234,4.4307286 92.764436,4.64945709 92.7294691,4.91756101 C92.7045261,5.11044816 92.6627989,5.29964369 92.5779458,5.47753363 C92.4991537,5.64342581 92.427355,5.81277888 92.3466979,5.97774816 C91.9469095,6.79336547 91.5450231,7.60782916 91.1445353,8.42298503 C90.782278,9.16061687 90.4221188,9.89940235 90.058929,10.636342 C89.4423457,11.8878012 88.8234313,13.1378761 88.206848,14.3891046 C87.9201192,14.9709962 87.6366541,15.5545029 87.3503916,16.1366253 C87.3235836,16.1908459 87.311928,16.2656012 87.2149531,16.2566029 C87.1685636,15.917666 87.1175119,15.578037 87.0767172,15.2370236 C87.022635,14.7880303 86.9790429,14.3376526 86.9265925,13.8881979 C86.8652839,13.3639878 86.7990798,12.8404699 86.7349738,12.3167213 C86.7100308,12.1136822 86.6862533,11.9104124 86.6599115,11.7073733 C86.6020995,11.2588415 86.5398584,10.8107711 86.4855431,10.3617778 C86.4312279,9.91278447 86.3895007,9.46217609 86.3335536,9.01318279 C86.2591906,8.41467888 86.1715402,7.81802078 86.098809,7.21951687 C86.0207162,6.57786715 85.9570765,5.93460235 85.8803823,5.29295263 C85.8496115,5.03661575 85.8141783,4.77935598 85.7572988,4.52786436 C85.6393437,4.00780737 85.3307024,3.65664201 84.7845191,3.56181352 C84.5497746,3.5212057 84.3133982,3.47944425 84.0707278,3.48544313 C83.7110348,3.49444145 83.3508755,3.48775039 82.9907162,3.48775039 C82.2053593,3.48775039 81.4197692,3.48682749 80.6344122,3.48844257 C80.4141206,3.48890402 80.4015325,3.50113251 80.3455855,3.71109341 C80.3290345,3.77362022 80.3236729,3.83914648 80.3061894,3.90121184 C80.2840437,3.9798895 80.3169126,4.02603475 80.3870795,4.05141464 C80.4689021,4.0809476 80.5544545,4.10102078 80.6344122,4.13470682 C81.0383967,4.30475207 81.1857239,4.57539397 81.1246484,5.00939006 C81.0959755,5.21404425 81.0449238,5.41085374 80.9640337,5.60074145 C80.7062109,6.20709006 80.4490875,6.81390011 80.1898661,7.41955654 C79.8539506,8.20402581 79.5157039,8.98757218 79.1790891,9.77181073 C78.8424742,10.5560493 78.5060925,11.3402878 78.1699438,12.1247571 C77.8340283,12.9092264 77.498579,13.6939264 77.1621972,14.4781649 C76.8216195,15.2725554 76.4805755,16.0664845 76.1395315,16.8606442 C75.7987206,17.654804 75.4506832,18.4459644 75.1191968,19.2440465 C74.7303647,20.1807951 74.2883828,21.0960861 73.9389467,22.0748269 C73.681124,22.0019174 73.540557,21.8519454 73.4867079,21.6237571 C73.4419503,21.4352537 73.3974257,21.2462889 73.391831,21.0506331 C73.377378,20.5656465 73.3701515,20.0808906 73.3426442,19.5956733 C73.2976535,18.7989755 73.3253939,17.9997398 73.2731766,17.2018884 C73.2265541,16.491713 73.2566256,15.7789996 73.2130335,15.0667476 C73.1626812,14.2490537 73.1920534,13.4276683 73.1407686,12.6083593 C73.0978758,11.9196415 73.1137275,11.2286163 73.0841222,10.5380526 C73.0419287,9.55769676 73.0365671,8.57526436 73.0016002,7.59398559 C72.9684982,6.66669676 72.9519472,5.73894648 72.9281697,4.81142693 C72.9279366,4.80058279 72.9281697,4.78973866 72.9274704,4.77889453 C72.8831789,4.14924257 72.5157932,3.7514705 72.0159994,3.60126771 C71.7751939,3.52881966 71.5297261,3.48682749 71.2767987,3.48728894 C70.6767664,3.48890402 70.0769672,3.48775039 69.4769349,3.48775039 C68.6151169,3.48775039 67.753299,3.48682749 66.891481,3.48844257 C66.6345907,3.48890402 66.6324927,3.49351855 66.5530012,3.74293363 C66.5399469,3.78400291 66.5266595,3.82530291 66.5185005,3.86729508 C66.50498,3.93835877 66.5268926,3.99627106 66.5970595,4.02626547 C66.6870411,4.06479676 66.7800531,4.0959448 66.868869,4.13678335 C67.1959263,4.28790905 67.4250762,4.55947385 67.2579343,5.07583922 C67.2043183,5.24196212 67.1262256,5.39562581 67.0273857,5.53867609 C66.8364664,5.81485542 66.6448477,6.09034257 66.4518303,6.36467609 C65.7853608,7.31180737 65.1172596,8.25801575 64.4512563,9.20560849 C63.3742753,10.7374001 62.298926,12.2705761 61.2219449,13.8025984 C60.2195599,15.228256 59.2162425,16.6532213 58.2129251,18.0781867 C57.7392399,18.7507537 57.2629904,19.4217057 56.7902377,20.0949649 C56.4853262,20.528961 56.1857763,20.9666487 55.881331,21.4008755 C55.7747984,21.5526934 55.6799215,21.7116638 55.6246738,21.8872465 C55.5039214,22.2716364 55.6109201,22.5614286 56.0400808,22.6885588 C56.2006955,22.7360884 56.3638744,22.7330889 56.5265872,22.7333197 C57.8467049,22.7356269 59.1665895,22.7353962 60.4867072,22.7344733 C60.7750677,22.7342426 60.7827604,22.725475 60.8622519,22.4428353 C60.8711102,22.4116873 60.8788029,22.3800778 60.8841645,22.3484683 C60.8972188,22.2707135 60.8676135,22.2220303 60.786024,22.2116476 C60.6226119,22.1908822 60.4643283,22.1571962 60.3211971,22.071366 C60.0845876,21.9297001 59.9934405,21.7340442 60.0566141,21.4694012 C60.0838883,21.354961 60.124683,21.2402901 60.1796976,21.1362325 C60.26525,20.974032 60.36036,20.8157537 60.4652608,20.6650895 C61.0461779,19.8298604 61.631291,18.9974001 62.2154716,18.1642476 C62.2590637,18.1021822 62.3110478,18.045885 62.3525419,17.982666 C62.4045261,17.9030655 62.4711963,17.8599197 62.5695699,17.8679951 C62.6129289,17.8716867 62.6567541,17.8682258 62.7003462,17.8682258 C64.7186367,17.8682258 66.7366941,17.8679951 68.7549846,17.8684565 C68.8202562,17.8684565 68.885994,17.8686873 68.9507993,17.8749169 C69.0118749,17.8809158 69.0503385,17.9199085 69.0547676,17.9796666 C69.061761,18.0765716 69.0626935,18.1737074 69.0650246,18.2708431 C69.0904339,19.2846543 69.1146776,20.2986962 69.1410194,21.3125074 C69.1468472,21.5413878 69.2027943,21.7617314 69.2874142,21.9726152 C69.3871865,22.2215688 69.5596899,22.4109951 69.8000292,22.5392789 C70.0347738,22.664794 70.2825727,22.7326275 70.5508855,22.7323968 C71.7290375,22.7319353 72.9071896,22.732166 74.0853416,22.7377035 C74.2053947,22.7381649 74.3154239,22.688328 74.4399061,22.7079398 C74.6002877,22.7330889 74.7657978,22.7337811 74.9289768,22.7340118 C76.0089883,22.7358577 77.0889998,22.7349347 78.1690114,22.7351655 C78.5322011,22.7351655 78.5004978,22.761699 78.618919,22.3683107 C78.6464264,22.2767124 78.6154224,22.2264141 78.5165825,22.2065716 C78.3862725,22.1804996 78.2638883,22.1364308 78.1510617,22.0699817 C77.9634059,21.9596945 77.8839144,21.7838811 77.9328681,21.5755353 C77.9696999,21.41818 78.0109609,21.2603632 78.0699384,21.1103912 C78.2443068,20.6685504 78.4249692,20.2290169 78.6093614,19.7910984 C79.3010071,18.1483275 79.9966156,16.5074023 80.6873288,14.8644007 C81.231414,13.5700264 81.7703708,12.2733448 82.312358,10.9780476 C82.3324057,10.930518 82.3449938,10.8746822 82.4039714,10.8523018 C82.4715741,10.9321331 82.4729727,11.029961 82.4829966,11.1266353 C82.5307847,11.5873956 82.5671503,12.0497711 82.6356855,12.507532 C82.667855,12.7216459 82.6748484,12.9369135 82.7060855,13.1503353 C82.7436167,13.40598 82.7806816,13.6618554 82.8100538,13.918423 C82.8627373,14.3784912 82.9058632,14.8399437 82.9604116,15.2997811 C83.0137944,15.7487744 83.0813971,16.1963834 83.1340806,16.6453766 C83.2096092,17.2872571 83.2662556,17.9314448 83.3534397,18.5717102 C83.3842106,18.7964375 83.3954,19.0223185 83.4280358,19.2463537 C83.465567,19.5019984 83.500767,19.7581046 83.5308386,20.0146722 C83.5823565,20.4532828 83.6215194,20.8935085 83.6811963,21.3309655 C83.7117341,21.5543085 83.7662825,21.7758057 83.8266587,21.9936113 C83.9268972,22.3553901 84.1569795,22.588885 84.5367202,22.6770225 C84.6877773,22.7123236 84.8376689,22.7268593 84.9898915,22.7275515 C85.7862048,22.7319353 86.5825181,22.7351655 87.3788313,22.7342426 C87.8392291,22.7335504 87.7574065,22.7875403 87.9660425,22.3754632 C89.4369841,19.4713118 90.9055947,16.5657761 92.3749046,13.6609325 C92.8973103,12.6282018 93.4192499,11.5952403 93.9437536,10.5636632 C93.9850146,10.4826783 94.0041298,10.3813895 94.1241829,10.3179398 C94.1523896,10.4501459 94.1395684,10.5655091 94.1395684,10.6785649 C94.1405008,14.2633588 94.1405008,17.8481526 94.1400346,21.4327158 C94.1400346,21.6274487 94.1458624,21.8191822 94.198779,22.0099928 C94.3162679,22.4342984 94.6155847,22.6904046 95.060597,22.7259364 C95.1799507,22.7353962 95.3004701,22.734704 95.42029,22.734704 C96.55485,22.7351655 97.6894099,22.7351655 98.8239698,22.7349347 C98.8894745,22.7349347 98.9549792,22.7326275 99.0202508,22.734704 C99.132378,22.7383956 99.208839,22.6954806 99.2391437,22.5835783 C99.2615225,22.5005169 99.2911278,22.4188398 99.3086113,22.3348554 C99.3205001,22.2783275 99.2995199,22.2291828 99.2349477,22.210494" id="Fill-27" fill="#96A7B1"></path>
                        <path d="M115.070439,10.2268721 C115.01659,10.7291632 114.930338,11.229147 114.810751,11.7215168 C114.433342,13.2736123 113.965718,14.7982515 113.378273,16.2852822 C113.123947,16.9297006 112.81414,17.5468934 112.406426,18.1126341 C112.013165,18.658071 111.533652,19.1024498 110.913106,19.384628 C110.442684,19.5982805 109.947319,19.715028 109.431441,19.7427151 C109.235859,19.7533285 109.039112,19.7445609 108.843064,19.7445609 C108.362152,19.7634805 107.885204,19.734409 107.417346,19.6144313 C107.09938,19.5327542 106.793537,19.4256973 106.522893,19.2325794 C106.250151,19.0380772 106.047342,18.7902772 105.923326,18.4822576 C105.810267,18.2007716 105.750823,17.9082107 105.711427,17.60619 C105.644524,17.0960542 105.715623,16.5972241 105.774601,16.0953945 C105.899782,15.0326693 106.175088,14.0024766 106.462749,12.9750526 C106.611009,12.4457665 106.748546,11.9137118 106.904731,11.386733 C107.174909,10.4753643 107.495672,9.58222296 107.948144,8.7407643 C108.19571,8.28069615 108.49899,7.85846709 108.869639,7.49068944 C109.400903,6.96324922 110.055251,6.66653525 110.790255,6.5202548 C111.09167,6.4604967 111.397281,6.43442464 111.697763,6.42450341 C112.396169,6.40143078 113.08898,6.46003525 113.738666,6.76067156 C114.362242,7.04931011 114.742916,7.53821905 114.945491,8.17317771 C115.044097,8.48188944 115.104007,8.80006095 115.096315,9.12746151 C115.087689,9.49408553 115.109369,9.86347827 115.070439,10.2268721 M119.682342,7.89722911 C119.608213,7.3584833 119.481865,6.83865704 119.267635,6.33982687 C118.976011,5.66149168 118.535661,5.09528944 117.953112,4.63383693 C117.319278,4.13200732 116.592199,3.82421849 115.818032,3.61656486 C115.303086,3.47835983 114.779747,3.38399279 114.245686,3.33738609 C113.616282,3.28224251 112.987576,3.22640676 112.355141,3.23517436 C112.159793,3.23794307 111.964677,3.27139838 111.769096,3.27370564 C111.234335,3.27993525 110.704936,3.33254084 110.175304,3.40452743 C109.438667,3.50466263 108.722545,3.67563078 108.022507,3.92320006 C106.724535,4.38257603 105.664571,5.17119838 104.789699,6.21131235 C104.107145,7.02300732 103.607817,7.94660453 103.193576,8.91288609 C102.588182,10.3247001 102.133845,11.7881967 101.735222,13.2685364 C101.496748,14.1536023 101.29324,15.0458207 101.192536,15.9590353 C101.13822,16.4520973 101.079243,16.9437749 101.081574,17.4405285 C101.082973,17.7210917 101.101155,17.9993475 101.128663,18.2792185 C101.188106,18.8855671 101.321447,19.4676894 101.569712,20.0267392 C101.880451,20.7263012 102.350174,21.2918112 102.978413,21.7322677 C103.491727,22.0919699 104.061222,22.3365397 104.660321,22.5077386 C105.563633,22.7663827 106.489091,22.8992811 107.429701,22.9198157 C107.72389,22.926276 108.018544,22.9209693 108.312966,22.9209693 L108.312966,22.914509 C108.705761,22.914509 109.099255,22.9301984 109.490885,22.9101252 C109.881348,22.890052 110.270181,22.8358313 110.659246,22.7933777 C111.365344,22.7163151 112.05396,22.5608056 112.724858,22.3307716 C113.944038,21.9129263 114.995377,21.2512034 115.842042,20.2745392 C116.356522,19.6811112 116.791744,19.0385386 117.161461,18.3512051 C117.597615,17.5399716 117.938892,16.687438 118.243337,15.8208302 C118.694177,14.5373001 119.082543,13.2355425 119.3751,11.9070207 C119.532917,11.1908464 119.66719,10.468904 119.717543,9.73865536 C119.759503,9.12676933 119.766729,8.51188385 119.682342,7.89722911" id="Fill-29" fill="#96A7B1"></path>
                        <path d="M134.254689,15.7106354 C134.321825,15.4921376 134.388962,15.2884063 134.447473,15.082137 C134.835839,13.7127767 135.223972,12.3434164 135.609541,10.9731331 C136.062246,9.36427894 136.512153,7.75450184 136.963693,6.14541693 C137.05111,5.83393648 137.135497,5.52153313 137.229674,5.21189849 C137.278162,5.05269737 137.282125,4.89188117 137.270469,4.73083425 C137.247158,4.40712531 137.071158,4.19162698 136.765547,4.07995547 C136.704704,4.05780575 136.637568,4.05226832 136.576959,4.02965715 C136.535931,4.01419849 136.508657,3.97774374 136.514018,3.92767615 C136.515184,3.91706274 136.51565,3.9062186 136.518447,3.89583592 C136.637102,3.43092251 136.579057,3.48952698 137.021505,3.48837335 C137.86141,3.48629682 138.701315,3.49114207 139.541221,3.48537391 C139.750556,3.48398955 139.955229,3.50613927 140.156872,3.55020799 C140.530318,3.63211581 140.764364,3.86076553 140.876025,4.22554374 C140.972067,4.53979291 140.928941,4.84596665 140.848284,5.15006385 C140.674382,5.80671078 140.492321,6.46105045 140.31329,7.11631302 C140.043113,8.10451358 139.772702,9.09248341 139.502058,10.0804532 C139.188754,11.224394 138.874984,12.3681041 138.561681,13.5120449 C138.308287,14.4377186 138.055826,15.3633923 137.802899,16.2890661 C137.464652,17.5266817 137.126639,18.7645281 136.787926,20.0021437 C136.562972,20.8237599 136.336619,21.6449147 136.111199,22.4663002 C136.096746,22.5182136 136.08952,22.5724342 136.071104,22.6227326 C136.047093,22.6884896 135.998373,22.7284052 135.924243,22.7309432 C135.880651,22.7325583 135.837059,22.7348655 135.793467,22.7348655 C135.095527,22.7346348 134.397354,22.7337119 133.699181,22.7337119 C133.488447,22.7337119 133.290301,22.6951806 133.104277,22.5878929 C132.887716,22.4628393 132.737358,22.2831035 132.63642,22.0625292 C132.204229,21.1193203 131.777166,20.1742655 131.345441,19.2310566 C130.972228,18.4154393 130.593653,17.6021292 130.220672,16.7865119 C129.74419,15.7450136 129.271903,14.7014387 128.795887,13.6597097 C128.440856,12.8833158 128.082795,12.1083063 127.726832,11.3323739 C127.663658,11.1948611 127.604447,11.0557331 127.541274,10.918451 C127.514932,10.8610002 127.500712,10.7927052 127.42565,10.7707862 C127.367372,10.8104711 127.354084,10.8757666 127.337766,10.9355247 C127.026794,12.079927 126.718386,13.2250214 126.406947,14.3694236 C126.098073,15.5034432 125.785468,16.6363091 125.476361,17.7703287 C125.186835,18.831208 124.901505,19.8932409 124.610347,20.9538896 C124.557663,21.1456231 124.563491,21.3382795 124.568153,21.5320896 C124.574681,21.7955789 124.708254,21.9826979 124.941134,22.096446 C125.066082,22.1573577 125.201521,22.1972734 125.350247,22.2535706 C125.317145,22.3793164 125.287073,22.5036778 125.251174,22.6261935 C125.230893,22.6944884 125.179375,22.7311739 125.105012,22.7325583 C125.050697,22.7332504 124.996148,22.7348655 124.9416,22.7348655 C123.992598,22.7348655 123.043596,22.7350963 122.094594,22.7341734 C121.89808,22.7339426 121.702498,22.7297896 121.515075,22.6554957 C121.236505,22.5454393 121.037893,22.3624734 120.938587,22.0772957 C120.840214,21.7944253 120.815271,21.505556 120.887069,21.2171482 C121.012251,20.7150879 121.148855,20.216027 121.285692,19.7169661 C121.5941,18.5940214 121.905772,17.4717689 122.215579,16.3492856 C122.471071,15.4243041 122.726096,14.4990918 122.981355,13.5741102 C123.294192,12.4412443 123.607729,11.3086091 123.920333,10.1755125 C124.209859,9.12570799 124.49822,8.07544207 124.787513,7.02540687 C124.945097,6.45366721 125.101749,5.88169682 125.261897,5.31088006 C125.327402,5.07715436 125.320408,4.84019849 125.299428,4.60370408 C125.28311,4.42166106 125.186135,4.28045659 125.026453,4.18493592 C124.922951,4.12310128 124.812222,4.08087838 124.696132,4.04719235 C124.590066,4.01627503 124.565589,3.95997782 124.585404,3.84738341 C124.5889,3.82615659 124.592164,3.80446832 124.599624,3.78416441 C124.688673,3.53751804 124.62107,3.48537391 124.967709,3.48675827 C125.851206,3.48998844 126.734704,3.49021916 127.618434,3.48629682 C127.828003,3.48537391 128.033841,3.51905994 128.232919,3.56497447 C128.502864,3.62750128 128.735977,3.77216665 128.885402,4.01742866 C128.947177,4.11894821 129.012449,4.22069849 129.055108,4.33052419 C129.391024,5.19736274 129.808529,6.02843872 130.18757,6.87658844 C130.703449,8.03045045 131.226088,9.18154374 131.747561,10.3333292 C132.072753,11.0518108 132.402142,11.7686773 132.728266,12.4869281 C133.183769,13.4905873 133.637173,14.4949387 134.093375,15.4981365 C134.12368,15.5648164 134.137433,15.6448784 134.254689,15.7106354" id="Fill-31" fill="#96A7B1"></path>
                        <g id="Group-35" transform="translate(139.634559, 3.293848)">
                            <mask id="mask-2" fill="white">
                                <use xlink:href="#path-1"></use>
                            </mask>
                            <g id="Clip-34"></g>
                            <path d="M13.4195338,11.3817493 C13.4134729,11.4777315 13.3789722,11.5079566 13.2738384,11.5158013 C13.2304794,11.5190315 13.1866542,11.5183393 13.1430621,11.5183393 C11.8565126,11.5183393 10.5699631,11.51857 9.28318057,11.5183393 C9.23958847,11.5183393 9.19599638,11.51857 9.15240429,11.516032 C9.06475388,11.5107253 9.03678035,11.4599655 9.08596715,11.389594 C9.24075404,11.1678661 9.39670649,10.9468303 9.55382451,10.7267175 C10.0130567,10.0839141 10.4729882,9.44203369 10.9324535,8.79946106 C11.6688568,7.76972978 12.405027,6.73999849 13.1416634,5.71049793 C13.1659071,5.67658117 13.19458,5.64612531 13.221388,5.61405436 C13.2405032,5.61982251 13.2596185,5.62559067 13.2787337,5.63135883 C13.2822304,5.89900128 13.2801324,6.16687447 13.2899231,6.4342862 C13.3274543,7.45824933 13.3377113,8.48313536 13.3740769,9.50663704 C13.3938914,10.0668404 13.4039153,10.6272745 13.4206994,11.1877085 C13.4225643,11.2523119 13.4237299,11.317146 13.4195338,11.3817493 M18.3456733,18.7871393 C18.1139591,18.6985404 17.9766557,18.5409544 17.9228067,18.2945387 C17.8510079,17.9655231 17.8321258,17.6323544 17.8165072,17.2998778 C17.782939,16.5779354 17.8034529,15.85507 17.7568304,15.1322046 C17.7046131,14.3253549 17.7407456,13.5148136 17.6868965,12.7058873 C17.6391084,11.9850985 17.671278,11.2615409 17.6251216,10.5386756 C17.5745362,9.74243927 17.6076382,8.94274207 17.5554209,8.14489067 C17.5087984,7.43471525 17.5356063,6.72200184 17.4955109,6.00974989 C17.4458579,5.12699123 17.4696354,4.2410024 17.4197493,3.35685939 C17.3838499,2.72190073 17.4162526,2.0846348 17.3600724,1.44875324 C17.3160141,0.948307989 17.0829013,0.597834804 16.6348585,0.378183408 C16.334143,0.23074933 16.0101162,0.195217486 15.6816603,0.194756034 C14.2743584,0.192679497 12.8670565,0.192218045 11.4597547,0.19498676 C11.0513411,0.195678939 11.1096192,0.130383408 10.9725489,0.550997374 C10.9338522,0.669129218 10.9462072,0.695893464 11.071855,0.740885084 C11.2054286,0.788876145 11.336438,0.837790112 11.4543931,0.919928659 C11.7397231,1.11858397 11.8313364,1.37445939 11.7334291,1.70832028 C11.6502078,1.99303648 11.4919242,2.23806777 11.3229174,2.47733089 C11.0858417,2.81349905 10.8455025,3.14735994 10.6091261,3.48398955 C10.0058302,4.34344486 9.40509855,5.20451525 8.80110332,6.06350911 C7.83578327,7.43586888 6.86859832,8.80661358 5.90257893,10.1785119 C5.510017,10.7361773 5.1197862,11.2954577 4.72699115,11.8528923 C3.78568172,13.1892588 2.84343984,14.5249331 1.90166418,15.8608382 C1.40886375,16.559708 0.915130867,17.2581164 0.424894677,17.9586013 C0.332115788,18.0914996 0.252857441,18.2333963 0.16916995,18.3722935 C0.0952731968,18.4945784 0.0605393916,18.6304761 0.0353632107,18.7691426 C-0.0103268955,19.020865 0.0878135877,19.2142136 0.318362134,19.3275002 C0.530494769,19.4317884 0.758479075,19.4410175 0.988561395,19.4410175 C2.26508701,19.440556 3.54137952,19.4428633 4.81790514,19.4403253 C5.26361679,19.4394024 5.21256509,19.5076974 5.34240891,19.0127896 C5.34707116,18.9945622 5.33541553,18.9721817 5.33145261,18.9518778 C5.28786052,18.91127 5.23028166,18.9202683 5.17829751,18.9073477 C5.06267357,18.8785069 4.94378604,18.8542806 4.83468926,18.8085968 C4.61369834,18.7160756 4.49131413,18.5552594 4.50296976,18.3042292 C4.50973004,18.1616404 4.52651416,18.0238968 4.59738044,17.8986125 C4.6878282,17.7389499 4.77641106,17.5772108 4.87944691,17.4253929 C5.10416764,17.09407 5.33751354,16.7685153 5.56736275,16.4404225 C5.95899223,15.882065 6.35481774,15.3264761 6.7387545,14.7630426 C6.83642876,14.6197616 6.94808978,14.5526203 7.118029,14.5738471 C7.15043168,14.5777694 7.1835337,14.5743085 7.21616949,14.5743085 L13.1071627,14.5743085 C13.1836237,14.5743085 13.2600847,14.5726935 13.3363126,14.5770773 C13.4430782,14.5830761 13.4794438,14.6128398 13.485971,14.7076683 C13.5053194,14.9981527 13.5302624,15.2884063 13.5360902,15.5791214 C13.5533406,16.4205801 13.5468134,17.2625002 13.6085883,18.1025745 C13.6118519,18.1457203 13.6102201,18.1893275 13.6155817,18.2320119 C13.6974043,18.8755074 14.0654894,19.2725873 14.6298554,19.3932572 C14.825204,19.4350186 15.0189207,19.4394024 15.2145023,19.4398639 C16.2835575,19.4424018 17.3526128,19.4412482 18.421668,19.4412482 C18.4545369,19.4412482 18.4871727,19.440556 18.5200416,19.4412482 C18.7149239,19.4449398 18.7806617,19.4329421 18.7869558,19.2155979 C18.7888207,19.1516868 18.7888207,19.0845454 18.8501293,19.0404767 L18.8501293,18.9108085 C18.6741292,18.901118 18.5086191,18.8494354 18.3456733,18.7871393" id="Fill-33" fill="#96A7B1" mask="url(#mask-2)"></path>
                        </g>
                        <path d="M41.3799673,20.8945237 C41.3394057,24.9504606 40.1486656,28.8139717 37.7368807,32.2974768 C37.2855743,32.9495092 36.7277354,33.5154807 36.1244395,34.0341533 C35.9843387,34.1545924 35.8295518,34.2556505 35.6663729,34.3449416 C35.2810375,34.5560561 34.8800835,34.5828203 34.465842,34.4464611 C34.2056882,34.3606309 33.9632509,34.235808 33.7371315,34.0846823 C33.4119391,33.8673382 33.0860475,33.6495326 32.7746088,33.4137304 C30.6262413,31.7868796 28.4816037,30.1554142 26.3358005,28.5251025 C25.470719,27.8677634 24.6061036,27.2095013 23.7410221,26.5519315 C23.6631624,26.4928656 23.5855358,26.4331075 23.505345,26.377041 C23.4552258,26.3419706 23.4011436,26.3680427 23.3883224,26.4317231 C23.3433317,26.6536818 23.2990402,26.8758712 23.2561475,27.098522 C23.162203,27.5858159 23.0696573,28.0733404 22.9752466,28.5606343 C22.9649896,28.6132399 22.9498373,28.6660762 22.928624,28.7152209 C22.9160359,28.7445231 22.8822346,28.7604432 22.8477339,28.7475226 C22.7866583,28.7244499 22.726049,28.7004544 22.6670715,28.6732287 C20.859748,27.8382304 19.0514921,27.0048472 17.2458005,26.1666187 C16.3816514,25.7653857 15.5867368,25.2580187 14.8871653,24.6106008 C14.33259,24.0974656 13.8614691,23.519727 13.528584,22.8413918 C12.8250496,21.4076589 12.825749,19.9709265 13.5397734,18.5411159 C13.9836202,17.6523583 14.644728,16.9419522 15.4272877,16.3356036 C16.0401412,15.8607689 16.7108067,15.4807628 17.4145742,15.1561309 C21.0695495,13.4697527 24.7245249,11.7833745 28.3792672,10.0967656 C29.5350404,9.56355721 30.6898811,9.02850302 31.8468199,8.4976019 C32.4503489,8.22073039 33.0634355,7.96762369 33.7084586,7.79734771 C34.1208351,7.68844492 34.5376408,7.61876559 34.9661021,7.61138235 C36.104858,7.59200134 36.9895211,8.06660525 37.6431693,8.96989855 C38.2730401,9.83996726 38.8138617,10.7644874 39.2870807,11.7270773 C40.1412059,13.464446 40.7375085,15.2837226 41.0689948,17.18906 C41.2729685,18.362303 41.3720415,19.54316 41.3799673,20.8945237" id="Fill-36" fill="#E31E24"></path>
                        <path d="M0.00163178951,19.797328 C0.00233112787,19.6270521 0.00279735344,19.4567761 0.0034966918,19.2865001 C0.136837206,17.591585 0.445245422,15.930356 0.98886444,14.3152722 C2.32553316,10.3437811 4.6708809,7.07646659 7.99670103,4.4948705 C8.04798584,4.45518559 8.10113556,4.41734648 8.15545084,4.38181464 C8.19461379,4.3559733 8.24426681,4.38319899 8.24566549,4.43095933 C8.24822973,4.51725095 8.24822973,4.6037733 8.24822973,4.69006492 C8.24822973,15.3542325 8.24822973,26.0184001 8.24799661,36.6825677 C8.24799661,36.7797035 8.24659794,36.8768392 8.24380058,36.9737442 C8.24240191,37.0168901 8.18622172,37.0452694 8.14985613,37.0205817 C8.08691568,36.9778973 8.02490768,36.9340593 7.9652308,36.8872219 C4.18344207,33.9246968 1.69146638,30.1368638 0.533362056,25.4976509 C0.247798892,24.3537102 0.0787921218,23.1910806 0.00256424065,22.0150688 C0.0345006924,21.8438699 0.00186490229,21.6729018 0,21.5017029 C0.000466225573,20.9336549 0.00116556393,20.3653761 0.00163178951,19.797328" id="Fill-38" fill="#E31E24"></path>
                        <g id="Group-42" transform="translate(11.422527, 0.063680)">
                            <mask id="mask-4" fill="white">
                                <use xlink:href="#path-3"></use>
                            </mask>
                            <g id="Clip-41"></g>
                            <path d="M9.6693319,0.171360391 C9.7350697,0.169976034 9.80080751,0.168591676 9.86654531,0.167207318 C9.97540898,0.16836095 10.0840395,0.169514581 10.1929032,0.170668212 C10.3015338,0.17943581 10.4101643,0.197893911 10.519028,0.172283296 C11.25683,0.241501173 11.9946319,0.310257598 12.726373,0.433696145 C14.5092196,0.733871006 16.2232979,1.25462017 17.8648781,2.00378832 C18.3320362,2.21721011 18.7521054,2.51092464 19.1311468,2.8577062 C19.3407152,3.04943972 19.5246412,3.26309223 19.6568161,3.51481458 C19.919068,4.01502911 19.8801382,4.4912481 19.5274385,4.93770341 C19.3710198,5.13543581 19.1773031,5.29232966 18.9686672,5.43261123 C18.7607306,5.57243134 18.5381079,5.68664084 18.3105898,5.79139056 C14.0928801,7.73802799 9.87586982,9.68581905 5.65652839,11.6289956 C4.77699384,12.0339202 3.88510432,12.4113883 2.96011279,12.7064872 C2.61743699,12.8158515 2.27103139,12.9095263 1.91669995,12.9736682 C1.64675535,13.0225822 1.37494584,13.0359643 1.10220388,13.0108151 C0.648100169,12.968823 0.368131712,12.7371738 0.231061394,12.300409 C0.152269272,12.050071 0.13198846,11.7907347 0.131755347,11.5323213 C0.129191106,9.68604978 0.125228189,7.83954754 0.138515618,5.99327603 C0.142944761,5.40054028 0.155299738,4.80595872 0.237355439,4.21576095 C0.283744884,3.88351514 0.346685336,3.5554224 0.457180797,3.23840453 C0.636211417,2.7241157 0.945552085,2.30280955 1.3870677,1.97587045 C1.6768269,1.76129503 1.99013048,1.58732743 2.31998507,1.44358497 C3.30092368,1.01604922 4.31403185,0.691417374 5.37096522,0.501991117 C6.14396722,0.363093911 6.92209771,0.266419609 7.70395799,0.195355922 C7.74731697,0.191433575 7.78997661,0.181743073 7.83286936,0.174821285 L8.09302323,0.171360391 C8.2018869,0.193971564 8.30981812,0.177820726 8.41798246,0.166976592 C8.5263799,0.167438045 8.63454424,0.168130223 8.74294168,0.168591676 C9.05158301,0.169514581 9.36045745,0.170437486 9.6693319,0.171360391" id="Fill-40" fill="#E31E24" mask="url(#mask-4)"></path>
                        </g>
                        <path d="M22.2700105,41.1317083 C22.2045058,41.1312468 22.1392342,41.1310161 22.0737295,41.1305546 C21.9872446,41.1305546 21.9005267,41.1307854 21.8140418,41.1310161 C21.7042457,41.1291703 21.5944496,41.1270937 21.4848866,41.1252479 C20.9589841,41.1254787 20.4330817,41.1254787 19.9071793,41.1254787 C19.7973831,41.1273245 19.6878201,41.1289396 19.5782571,41.1307854 C19.4908398,41.1314775 19.4034225,41.1321697 19.3160052,41.1328619 C19.2295204,41.1326312 19.1430355,41.1321697 19.0565507,41.1317083 C18.9698327,41.1303239 18.8833479,41.1287088 18.7966299,41.1273245 C18.1709552,41.0412636 17.5429494,40.9729686 16.920072,40.8640658 C15.8197797,40.6718708 14.7621469,40.3467775 13.7427447,39.8973228 C13.5639472,39.8186451 13.3907444,39.7263546 13.2189403,39.6331412 C12.3902243,39.183225 11.9046504,38.4889697 11.7335456,37.5743708 C11.6601151,37.181444 11.610229,36.7857485 11.5946104,36.3861306 C11.5659375,35.6526518 11.548221,34.9191731 11.550319,34.1850021 C11.554515,32.7819558 11.5496196,31.3789094 11.5535825,29.975863 C11.5542819,29.7497513 11.5740965,29.5231781 11.5981071,29.29822 C11.6106952,29.1814725 11.6407667,29.0635714 11.6820277,28.953515 C11.8048781,28.6251915 12.0414876,28.4279206 12.3911568,28.3501658 C12.7541134,28.2694116 13.1084448,28.3247859 13.4611445,28.3933116 C14.1695742,28.5305937 14.8435033,28.7797781 15.5120708,29.042806 C16.2109429,29.317601 16.8951289,29.6258513 17.5765176,29.9398697 C18.7814776,30.4952278 19.9857383,31.0517396 21.1897658,31.6082513 C21.2881394,31.6537044 21.3841819,31.7033105 21.4750959,31.7480714 C21.4869846,31.8345937 21.4322031,31.878201 21.3923408,31.927115 C20.960849,32.4559396 20.5279586,32.9838412 20.0964668,33.5128965 C20.0496112,33.5701166 19.9845727,33.6174155 19.9757144,33.7020921 C20.0181409,33.7782317 20.100896,33.7756937 20.1703636,33.7909217 C22.765142,34.3589697 25.3603867,34.925172 27.9553982,35.4918356 C28.4659152,35.6032764 28.978064,35.7077954 29.4867161,35.8273116 C30.1338372,35.9793602 30.7655729,36.183553 31.3814568,36.4320451 C31.5423047,36.4968792 31.6961591,36.5801714 31.8486149,36.6632328 C31.9537487,36.7206837 32.0465276,36.7982077 32.1164614,36.8969585 C32.2036456,37.0201664 32.2346496,37.152834 32.1616853,37.2928848 C32.1169277,37.3784842 32.0719369,37.4668524 32.0103951,37.5404541 C31.9206467,37.6482032 31.8229725,37.7520301 31.7164399,37.8431669 C31.2290011,38.26032 30.7184841,38.6414798 30.1394319,38.9333485 C28.3015707,39.8599451 26.3727955,40.5131312 24.3419169,40.8746792 C23.7404859,40.9817362 23.1336933,41.0428787 22.5299312,41.1277859 C22.4432133,41.1291703 22.3567284,41.1303239 22.2700105,41.1317083" id="Fill-43" fill="#E31E24"></path>
                    </g>
                </g>
            </g>
        </g>
    </g>
</svg>